<svg width="675" height="188" viewBox="0 0 675 188" fill="none" xmlns="http://www.w3.org/2000/svg">
<path d="M225.847 146.825V126.924H246.607C251.857 126.924 256.534 126.113 260.638 124.491C264.838 122.868 268.369 120.625 271.233 117.761C274.192 114.803 276.435 111.319 277.962 107.31C279.489 103.206 280.253 98.6719 280.253 93.7086C280.253 88.6499 279.489 84.1161 277.962 80.1073C276.435 76.0031 274.192 72.5193 271.233 69.6558C268.369 66.7924 264.838 64.6448 260.638 63.2131C256.534 61.6859 251.857 60.9224 246.607 60.9224H225.847V41.0215H245.462C254.911 41.0215 263.12 42.4055 270.087 45.1735C277.151 47.9415 283.021 51.7594 287.698 56.6272C292.47 61.3996 296.001 66.8401 298.292 72.9488C300.678 79.0574 301.871 85.4524 301.871 92.1337V95.2835C301.871 101.583 300.678 107.835 298.292 114.039C296.001 120.148 292.47 125.684 287.698 130.647C283.021 135.515 277.151 139.428 270.087 142.387C263.12 145.346 254.911 146.825 245.462 146.825H225.847ZM207.235 146.825V41.0215H228.711V146.825H207.235Z" fill="white"/>
<path d="M350.293 148.973C343.611 148.973 337.741 147.827 332.682 145.537C327.624 143.246 323.424 140.192 320.083 136.374C316.743 132.46 314.213 128.118 312.495 123.345C310.777 118.573 309.918 113.657 309.918 108.598V105.878C309.918 100.724 310.777 95.7608 312.495 90.9884C314.213 86.1205 316.695 81.7777 319.94 77.9598C323.281 74.1419 327.433 71.1353 332.396 68.94C337.359 66.6492 343.039 65.5038 349.434 65.5038C357.833 65.5038 364.848 67.3651 370.48 71.0875C376.207 74.81 380.549 79.6778 383.508 85.691C386.467 91.7042 387.947 98.1947 387.947 105.162V112.464H318.795V100.008H374.918L368.332 106.021C368.332 101.154 367.616 97.0016 366.185 93.5655C364.848 90.1293 362.748 87.5045 359.885 85.691C357.117 83.7821 353.633 82.8276 349.434 82.8276C345.138 82.8276 341.511 83.7821 338.552 85.691C335.594 87.6 333.351 90.4157 331.823 94.1381C330.296 97.7652 329.533 102.156 329.533 107.31C329.533 112.178 330.249 116.473 331.68 120.195C333.112 123.822 335.355 126.686 338.409 128.786C341.464 130.79 345.425 131.792 350.293 131.792C354.874 131.792 358.597 130.885 361.46 129.072C364.419 127.163 366.375 124.872 367.33 122.2H386.515C385.37 127.545 383.127 132.222 379.786 136.231C376.541 140.239 372.389 143.389 367.33 145.68C362.367 147.875 356.688 148.973 350.293 148.973Z" fill="white"/>
<path d="M391.836 146.253L416.891 104.59L416.318 108.026L392.838 68.2241H415.459L430.635 95.4267H432.783L447.1 68.2241H468.433L446.098 108.026L446.527 105.019L472.871 146.253H450.25L432.21 117.189H430.063L413.168 146.253H391.836Z" fill="white"/>
<path d="M552.016 146.253L514.648 97.4311H499.901L544.857 41.7374H569.339L528.965 91.8474L528.392 81.6822L578.073 146.253H552.016ZM484.009 146.253V41.7374H505.485V146.253H484.009Z" fill="white"/>
<path d="M588.858 146.253V68.2241H609.761V146.253H588.858ZM578.12 83.8298V68.2241H609.761V83.8298H578.12ZM596.732 59.4906C592.628 59.4906 589.621 58.4407 587.712 56.3409C585.803 54.241 584.849 51.5685 584.849 48.3233C584.849 45.078 585.803 42.4055 587.712 40.3057C589.621 38.2058 592.58 37.1559 596.589 37.1559C600.693 37.1559 603.7 38.2058 605.609 40.3057C607.518 42.4055 608.472 45.078 608.472 48.3233C608.472 51.5685 607.518 54.241 605.609 56.3409C603.7 58.4407 600.741 59.4906 596.732 59.4906Z" fill="white"/>
<path d="M663.611 147.255C656.166 147.255 650.105 146.3 645.428 144.391C640.751 142.482 637.268 139.285 634.977 134.799C632.686 130.313 631.541 124.252 631.541 116.616L631.684 46.6052H651.155V117.761C651.155 121.484 652.157 124.395 654.162 126.495C656.166 128.499 659.03 129.502 662.752 129.502H674.779V147.255H663.611ZM619.371 83.6866V68.2241H674.779V83.6866H619.371Z" fill="white"/>
<path d="M44.3323 45.7633V184.335L3.11963 159.607V27.7271" stroke="white" stroke-width="5.70521" stroke-linejoin="round"/>
<path d="M44.3323 184.336L66.9992 173.002L89.6661 161.669L135 139.002V48.3339L48.4535 3L3.11963 27.7276L93.7874 68.9402V118.395L44.3323 139.002" stroke="white" stroke-width="5.70521" stroke-linejoin="round"/>
</svg>
