<svg width="675" height="188" viewBox="0 0 675 188" fill="none" xmlns="http://www.w3.org/2000/svg">
<path d="M225.847 146.694V126.793H246.607C251.857 126.793 256.534 125.982 260.638 124.359C264.838 122.736 268.369 120.493 271.233 117.63C274.192 114.671 276.435 111.187 277.962 107.178C279.489 103.074 280.253 98.5404 280.253 93.5772C280.253 88.5184 279.489 83.9847 277.962 79.9759C276.435 75.8716 274.192 72.3878 271.233 69.5244C268.369 66.6609 264.838 64.5133 260.638 63.0816C256.534 61.5545 251.857 60.7909 246.607 60.7909H225.847V40.89H245.462C254.911 40.89 263.12 42.274 270.087 45.042C277.151 47.81 283.021 51.6279 287.698 56.4957C292.47 61.2681 296.001 66.7086 298.292 72.8173C300.678 78.9259 301.871 85.3209 301.871 92.0023V95.152C301.871 101.452 300.678 107.703 298.292 113.908C296.001 120.016 292.47 125.552 287.698 130.515C283.021 135.383 277.151 139.297 270.087 142.255C263.12 145.214 254.911 146.694 245.462 146.694H225.847ZM207.235 146.694V40.89H228.711V146.694H207.235Z" fill="#010101"/>
<path d="M350.293 148.841C343.611 148.841 337.741 147.696 332.682 145.405C327.624 143.115 323.424 140.06 320.083 136.242C316.743 132.329 314.213 127.986 312.495 123.214C310.777 118.441 309.918 113.526 309.918 108.467V105.747C309.918 100.593 310.777 95.6293 312.495 90.8569C314.213 85.9891 316.695 81.6462 319.94 77.8283C323.281 74.0104 327.433 71.0038 332.396 68.8085C337.359 66.5177 343.039 65.3724 349.434 65.3724C357.833 65.3724 364.848 67.2336 370.48 70.9561C376.207 74.6785 380.549 79.5464 383.508 85.5596C386.467 91.5728 387.947 98.0632 387.947 105.031V112.333H318.795V99.8767H374.918L368.332 105.89C368.332 101.022 367.616 96.8701 366.185 93.434C364.848 89.9979 362.748 87.3731 359.885 85.5596C357.117 83.6506 353.633 82.6961 349.434 82.6961C345.138 82.6961 341.511 83.6506 338.552 85.5596C335.594 87.4685 333.351 90.2842 331.823 94.0067C330.296 97.6337 329.533 102.024 329.533 107.178C329.533 112.046 330.249 116.341 331.68 120.064C333.112 123.691 335.355 126.554 338.409 128.654C341.464 130.659 345.425 131.661 350.293 131.661C354.874 131.661 358.597 130.754 361.46 128.941C364.419 127.032 366.375 124.741 367.33 122.068H386.515C385.37 127.413 383.127 132.09 379.786 136.099C376.541 140.108 372.389 143.258 367.33 145.548C362.367 147.744 356.688 148.841 350.293 148.841Z" fill="#010101"/>
<path d="M391.836 146.121L416.891 104.458L416.318 107.894L392.838 68.0926H415.459L430.635 95.2952H432.783L447.1 68.0926H468.433L446.098 107.894L446.527 104.888L472.871 146.121H450.25L432.21 117.057H430.063L413.168 146.121H391.836Z" fill="#010101"/>
<path d="M552.016 146.121L514.648 97.2996H499.901L544.857 41.6059H569.339L528.965 91.7159L528.392 81.5508L578.073 146.121H552.016ZM484.009 146.121V41.6059H505.485V146.121H484.009Z" fill="#010101"/>
<path d="M588.858 146.121V68.0926H609.761V146.121H588.858ZM578.12 83.6983V68.0926H609.761V83.6983H578.12ZM596.732 59.3592C592.628 59.3592 589.621 58.3092 587.712 56.2094C585.803 54.1095 584.849 51.437 584.849 48.1918C584.849 44.9466 585.803 42.274 587.712 40.1742C589.621 38.0743 592.58 37.0244 596.589 37.0244C600.693 37.0244 603.7 38.0743 605.609 40.1742C607.518 42.274 608.472 44.9466 608.472 48.1918C608.472 51.437 607.518 54.1095 605.609 56.2094C603.7 58.3092 600.741 59.3592 596.732 59.3592Z" fill="#010101"/>
<path d="M663.611 147.123C656.166 147.123 650.105 146.169 645.428 144.26C640.751 142.351 637.268 139.153 634.977 134.667C632.686 130.181 631.541 124.12 631.541 116.485L631.684 46.4737H651.155V117.63C651.155 121.352 652.157 124.264 654.162 126.363C656.166 128.368 659.03 129.37 662.752 129.37H674.779V147.123H663.611ZM619.371 83.5552V68.0926H674.779V83.5552H619.371Z" fill="#010101"/>
<path d="M44.3323 45.7633V184.335L3.11963 159.607V27.7271" stroke="#010101" stroke-width="5.70521" stroke-linejoin="round"/>
<path d="M44.3323 184.336L66.9992 173.002L89.6661 161.669L135 139.002V48.3339L48.4535 3L3.11963 27.7276L93.7874 68.9402V118.395L44.3323 139.002" stroke="#010101" stroke-width="5.70521" stroke-linejoin="round"/>
</svg>
