<svg width="675" height="188" viewBox="0 0 675 188" fill="none" xmlns="http://www.w3.org/2000/svg">
<path d="M44.3323 45.7633V184.335L3.11963 159.607V27.7271" stroke="#F24023" stroke-width="5.70521" stroke-linejoin="round"/>
<path d="M44.3323 184.336L66.9992 173.002L89.6661 161.669L135 139.002V48.3339L48.4535 3L3.11963 27.7276L93.7874 68.9402V118.395L44.3323 139.002" stroke="#F24023" stroke-width="5.70521" stroke-linejoin="round"/>
<path d="M225.848 147.957V128.056H246.608C251.857 128.056 256.534 127.244 260.638 125.622C264.838 123.999 268.37 121.756 271.233 118.893C274.192 115.934 276.435 112.45 277.962 108.441C279.489 104.337 280.253 99.8033 280.253 94.84C280.253 89.7813 279.489 85.2475 277.962 81.2387C276.435 77.1344 274.192 73.6506 271.233 70.7872C268.37 67.9237 264.838 65.7762 260.638 64.3444C256.534 62.8173 251.857 62.0537 246.608 62.0537H225.848V42.1529H245.462C254.911 42.1529 263.12 43.5369 270.088 46.3048C277.151 49.0728 283.021 52.8907 287.698 57.7586C292.47 62.5309 296.002 67.9715 298.292 74.0801C300.679 80.1888 301.872 86.5838 301.872 93.2651V96.4149C301.872 102.714 300.679 108.966 298.292 115.17C296.002 121.279 292.47 126.815 287.698 131.778C283.021 136.646 277.151 140.559 270.088 143.518C263.12 146.477 254.911 147.957 245.462 147.957H225.848ZM207.235 147.957V42.1529H228.711V147.957H207.235Z" fill="white"/>
<path d="M350.293 150.104C343.611 150.104 337.741 148.959 332.683 146.668C327.624 144.377 323.424 141.323 320.084 137.505C316.743 133.592 314.214 129.249 312.496 124.476C310.777 119.704 309.918 114.789 309.918 109.73V107.01C309.918 101.855 310.777 96.8921 312.496 92.1197C314.214 87.2519 316.695 82.909 319.94 79.0911C323.281 75.2732 327.433 72.2666 332.396 70.0713C337.36 67.7806 343.039 66.6352 349.434 66.6352C357.833 66.6352 364.849 68.4964 370.48 72.2189C376.207 75.9413 380.55 80.8092 383.509 86.8224C386.467 92.8356 387.947 99.326 387.947 106.294V113.595H318.795V101.14H374.918L368.332 107.153C368.332 102.285 367.617 98.1329 366.185 94.6968C364.849 91.2607 362.749 88.6359 359.885 86.8224C357.117 84.9134 353.633 83.9589 349.434 83.9589C345.139 83.9589 341.512 84.9134 338.553 86.8224C335.594 88.7313 333.351 91.547 331.824 95.2695C330.297 98.8965 329.533 103.287 329.533 108.441C329.533 113.309 330.249 117.604 331.68 121.327C333.112 124.954 335.355 127.817 338.41 129.917C341.464 131.921 345.425 132.924 350.293 132.924C354.874 132.924 358.597 132.017 361.46 130.203C364.419 128.294 366.376 126.004 367.33 123.331H386.515C385.37 128.676 383.127 133.353 379.786 137.362C376.541 141.371 372.389 144.52 367.33 146.811C362.367 149.007 356.688 150.104 350.293 150.104Z" fill="white"/>
<path d="M391.836 147.384L416.891 105.721L416.318 109.157L392.838 69.3555H415.459L430.635 96.558H432.783L447.1 69.3555H468.433L446.098 109.157L446.528 106.151L472.871 147.384H450.25L432.21 118.32H430.063L413.169 147.384H391.836Z" fill="white"/>
<path d="M552.016 147.384L514.648 98.5624H499.901L544.857 42.8687H569.34L528.965 92.9787L528.393 82.8136L578.073 147.384H552.016ZM484.009 147.384V42.8687H505.485V147.384H484.009Z" fill="white"/>
<path d="M588.858 147.384V69.3555H609.761V147.384H588.858ZM578.12 84.9611V69.3555H609.761V84.9611H578.12ZM596.732 60.622C592.628 60.622 589.622 59.5721 587.713 57.4722C585.804 55.3724 584.849 52.6998 584.849 49.4546C584.849 46.2094 585.804 43.5369 587.713 41.437C589.622 39.3372 592.58 38.2872 596.589 38.2872C600.693 38.2872 603.7 39.3372 605.609 41.437C607.518 43.5369 608.472 46.2094 608.472 49.4546C608.472 52.6998 607.518 55.3724 605.609 57.4722C603.7 59.5721 600.741 60.622 596.732 60.622Z" fill="white"/>
<path d="M663.611 148.386C656.166 148.386 650.106 147.432 645.429 145.523C640.752 143.614 637.268 140.416 634.977 135.93C632.686 131.444 631.541 125.383 631.541 117.747L631.684 47.7365H651.155V118.893C651.155 122.615 652.158 125.526 654.162 127.626C656.166 129.631 659.03 130.633 662.752 130.633H674.779V148.386H663.611ZM619.371 84.818V69.3555H674.779V84.818H619.371Z" fill="white"/>
</svg>
