<svg width="675" height="188" viewBox="0 0 675 188" fill="none" xmlns="http://www.w3.org/2000/svg">
<path d="M225.847 148.825V128.924H246.607C251.857 128.924 256.534 128.113 260.638 126.491C264.838 124.868 268.369 122.625 271.233 119.761C274.192 116.803 276.435 113.319 277.962 109.31C279.489 105.206 280.253 100.672 280.253 95.7086C280.253 90.6499 279.489 86.1161 277.962 82.1073C276.435 78.0031 274.192 74.5193 271.233 71.6558C268.369 68.7924 264.838 66.6448 260.638 65.2131C256.534 63.6859 251.857 62.9224 246.607 62.9224H225.847V43.0215H245.462C254.911 43.0215 263.12 44.4055 270.087 47.1735C277.151 49.9415 283.021 53.7594 287.698 58.6272C292.47 63.3996 296.001 68.8401 298.292 74.9488C300.678 81.0574 301.871 87.4524 301.871 94.1337V97.2835C301.871 103.583 300.678 109.835 298.292 116.039C296.001 122.148 292.47 127.684 287.698 132.647C283.021 137.515 277.151 141.428 270.087 144.387C263.12 147.346 254.911 148.825 245.462 148.825H225.847ZM207.235 148.825V43.0215H228.711V148.825H207.235Z" fill="#010101"/>
<path d="M350.293 150.973C343.611 150.973 337.741 149.827 332.682 147.537C327.624 145.246 323.424 142.192 320.083 138.374C316.743 134.46 314.213 130.118 312.495 125.345C310.777 120.573 309.918 115.657 309.918 110.598V107.878C309.918 102.724 310.777 97.7608 312.495 92.9884C314.213 88.1205 316.695 83.7777 319.94 79.9598C323.281 76.1419 327.433 73.1353 332.396 70.94C337.359 68.6492 343.039 67.5038 349.434 67.5038C357.833 67.5038 364.848 69.3651 370.48 73.0875C376.207 76.81 380.549 81.6778 383.508 87.691C386.467 93.7042 387.947 100.195 387.947 107.162V114.464H318.795V102.008H374.918L368.332 108.021C368.332 103.154 367.616 99.0016 366.185 95.5655C364.848 92.1293 362.748 89.5045 359.885 87.691C357.117 85.7821 353.633 84.8276 349.434 84.8276C345.138 84.8276 341.511 85.7821 338.552 87.691C335.594 89.6 333.351 92.4157 331.823 96.1381C330.296 99.7652 329.533 104.156 329.533 109.31C329.533 114.178 330.249 118.473 331.68 122.195C333.112 125.822 335.355 128.686 338.409 130.786C341.464 132.79 345.425 133.792 350.293 133.792C354.874 133.792 358.597 132.885 361.46 131.072C364.419 129.163 366.375 126.872 367.33 124.2H386.515C385.37 129.545 383.127 134.222 379.786 138.231C376.541 142.239 372.389 145.389 367.33 147.68C362.367 149.875 356.688 150.973 350.293 150.973Z" fill="#010101"/>
<path d="M391.836 148.253L416.891 106.59L416.318 110.026L392.838 70.2241H415.459L430.635 97.4267H432.783L447.1 70.2241H468.433L446.098 110.026L446.527 107.019L472.871 148.253H450.25L432.21 119.189H430.063L413.168 148.253H391.836Z" fill="#010101"/>
<path d="M552.016 148.253L514.648 99.4311H499.901L544.857 43.7374H569.339L528.965 93.8474L528.392 83.6822L578.073 148.253H552.016ZM484.009 148.253V43.7374H505.485V148.253H484.009Z" fill="#010101"/>
<path d="M588.858 148.253V70.2241H609.761V148.253H588.858ZM578.12 85.8298V70.2241H609.761V85.8298H578.12ZM596.732 61.4906C592.628 61.4906 589.621 60.4407 587.712 58.3409C585.803 56.241 584.849 53.5685 584.849 50.3233C584.849 47.078 585.803 44.4055 587.712 42.3057C589.621 40.2058 592.58 39.1559 596.589 39.1559C600.693 39.1559 603.7 40.2058 605.609 42.3057C607.518 44.4055 608.472 47.078 608.472 50.3233C608.472 53.5685 607.518 56.241 605.609 58.3409C603.7 60.4407 600.741 61.4906 596.732 61.4906Z" fill="#010101"/>
<path d="M663.611 149.255C656.166 149.255 650.105 148.3 645.428 146.391C640.751 144.482 637.268 141.285 634.977 136.799C632.686 132.313 631.541 126.252 631.541 118.616L631.684 48.6052H651.155V119.761C651.155 123.484 652.157 126.395 654.162 128.495C656.166 130.499 659.03 131.502 662.752 131.502H674.779V149.255H663.611ZM619.371 85.6866V70.2241H674.779V85.6866H619.371Z" fill="#010101"/>
<path d="M44.3323 45.7633V184.335L3.11963 159.607V27.7271" stroke="#F24023" stroke-width="5.70521" stroke-linejoin="round"/>
<path d="M44.3323 184.336L66.9992 173.002L89.6661 161.669L135 139.002V48.3339L48.4535 3L3.11963 27.7276L93.7874 68.9402V118.395L44.3323 139.002" stroke="#F24023" stroke-width="5.70521" stroke-linejoin="round"/>
</svg>
