<svg width="673" height="180" viewBox="0 0 673 180" fill="none" xmlns="http://www.w3.org/2000/svg">
<path d="M41.6014 53.1773V179.388L0 154.926V24.4622L41.6014 53.1773Z" fill="#F24023"/>
<path d="M45.7615 0L0 24.4619L91.523 65.2318V114.156L48.7918 134.541L41.6014 179.388L64.4821 168.176L87.3629 156.964L133.124 134.541V44.8469L45.7615 0Z" fill="#F24023"/>
<path d="M223.848 143.957V124.056H244.608C249.857 124.056 254.534 123.244 258.638 121.622C262.838 119.999 266.37 117.756 269.233 114.893C272.192 111.934 274.435 108.45 275.962 104.441C277.489 100.337 278.253 95.8033 278.253 90.84C278.253 85.7813 277.489 81.2475 275.962 77.2387C274.435 73.1344 272.192 69.6506 269.233 66.7872C266.37 63.9237 262.838 61.7762 258.638 60.3444C254.534 58.8173 249.857 58.0537 244.608 58.0537H223.848V38.1529H243.462C252.911 38.1529 261.12 39.5369 268.088 42.3048C275.151 45.0728 281.021 48.8907 285.698 53.7586C290.47 58.5309 294.002 63.9715 296.292 70.0801C298.679 76.1888 299.872 82.5838 299.872 89.2651V92.4149C299.872 98.7144 298.679 104.966 296.292 111.17C294.002 117.279 290.47 122.815 285.698 127.778C281.021 132.646 275.151 136.559 268.088 139.518C261.12 142.477 252.911 143.957 243.462 143.957H223.848ZM205.235 143.957V38.1529H226.711V143.957H205.235Z" fill="white"/>
<path d="M348.293 146.104C341.611 146.104 335.741 144.959 330.683 142.668C325.624 140.377 321.424 137.323 318.084 133.505C314.743 129.592 312.214 125.249 310.496 120.476C308.777 115.704 307.918 110.789 307.918 105.73V103.01C307.918 97.8554 308.777 92.8921 310.496 88.1197C312.214 83.2519 314.695 78.909 317.94 75.0911C321.281 71.2732 325.433 68.2666 330.396 66.0713C335.36 63.7806 341.039 62.6352 347.434 62.6352C355.833 62.6352 362.849 64.4964 368.48 68.2189C374.207 71.9413 378.55 76.8092 381.509 82.8224C384.467 88.8356 385.947 95.326 385.947 102.294V109.595H316.795V97.1395H372.918L366.332 103.153C366.332 98.2849 365.617 94.1329 364.185 90.6968C362.849 87.2607 360.749 84.6359 357.885 82.8224C355.117 80.9134 351.633 79.9589 347.434 79.9589C343.139 79.9589 339.512 80.9134 336.553 82.8224C333.594 84.7313 331.351 87.547 329.824 91.2695C328.297 94.8965 327.533 99.2871 327.533 104.441C327.533 109.309 328.249 113.604 329.68 117.327C331.112 120.954 333.355 123.817 336.41 125.917C339.464 127.921 343.425 128.924 348.293 128.924C352.874 128.924 356.597 128.017 359.46 126.203C362.419 124.294 364.376 122.004 365.33 119.331H384.515C383.37 124.676 381.127 129.353 377.786 133.362C374.541 137.371 370.389 140.52 365.33 142.811C360.367 145.007 354.688 146.104 348.293 146.104Z" fill="white"/>
<path d="M389.836 143.384L414.891 101.721L414.318 105.157L390.838 65.3555H413.459L428.635 92.558H430.783L445.1 65.3555H466.433L444.098 105.157L444.528 102.151L470.871 143.384H448.25L430.21 114.32H428.063L411.169 143.384H389.836Z" fill="white"/>
<path d="M550.016 143.384L512.648 94.5624H497.901L542.857 38.8687H567.34L526.965 88.9787L526.393 78.8136L576.073 143.384H550.016ZM482.009 143.384V38.8687H503.485V143.384H482.009Z" fill="white"/>
<path d="M586.858 143.384V65.3555H607.761V143.384H586.858ZM576.12 80.9611V65.3555H607.761V80.9611H576.12ZM594.732 56.622C590.628 56.622 587.622 55.5721 585.713 53.4722C583.804 51.3724 582.849 48.6998 582.849 45.4546C582.849 42.2094 583.804 39.5369 585.713 37.437C587.622 35.3372 590.58 34.2872 594.589 34.2872C598.693 34.2872 601.7 35.3372 603.609 37.437C605.518 39.5369 606.472 42.2094 606.472 45.4546C606.472 48.6998 605.518 51.3724 603.609 53.4722C601.7 55.5721 598.741 56.622 594.732 56.622Z" fill="white"/>
<path d="M661.611 144.386C654.166 144.386 648.106 143.432 643.429 141.523C638.752 139.614 635.268 136.416 632.977 131.93C630.686 127.444 629.541 121.383 629.541 113.747L629.684 43.7365H649.155V114.893C649.155 118.615 650.158 121.526 652.162 123.626C654.166 125.631 657.03 126.633 660.752 126.633H672.779V144.386H661.611ZM617.371 80.818V65.3555H672.779V80.818H617.371Z" fill="white"/>
</svg>
