<svg width="673" height="181" viewBox="0 0 673 181" fill="none" xmlns="http://www.w3.org/2000/svg">
<path d="M41.6014 54.046V180.256L0 155.795V25.3308L41.6014 54.046Z" fill="#F24023"/>
<path d="M45.7615 0.868652L0 25.3306L91.523 66.1005V115.024L48.7918 135.409L41.6014 180.256L64.4821 169.044L87.3629 157.833L133.124 135.409V45.7155L45.7615 0.868652Z" fill="#F24023"/>
<path d="M223.848 144.825V124.924H244.608C249.857 124.924 254.534 124.113 258.638 122.491C262.838 120.868 266.37 118.625 269.233 115.761C272.192 112.803 274.435 109.319 275.962 105.31C277.489 101.206 278.253 96.6719 278.253 91.7086C278.253 86.6499 277.489 82.1161 275.962 78.1073C274.435 74.0031 272.192 70.5193 269.233 67.6558C266.37 64.7924 262.838 62.6448 258.638 61.2131C254.534 59.6859 249.857 58.9224 244.608 58.9224H223.848V39.0215H243.462C252.911 39.0215 261.12 40.4055 268.088 43.1735C275.151 45.9415 281.021 49.7594 285.698 54.6272C290.47 59.3996 294.002 64.8401 296.292 70.9488C298.679 77.0574 299.872 83.4524 299.872 90.1337V93.2835C299.872 99.5831 298.679 105.835 296.292 112.039C294.002 118.148 290.47 123.684 285.698 128.647C281.021 133.515 275.151 137.428 268.088 140.387C261.12 143.346 252.911 144.825 243.462 144.825H223.848ZM205.235 144.825V39.0215H226.711V144.825H205.235Z" fill="#010101"/>
<path d="M348.293 146.973C341.611 146.973 335.741 145.827 330.683 143.537C325.624 141.246 321.424 138.192 318.084 134.374C314.743 130.46 312.214 126.118 310.496 121.345C308.777 116.573 307.918 111.657 307.918 106.598V103.878C307.918 98.724 308.777 93.7608 310.496 88.9884C312.214 84.1205 314.695 79.7777 317.94 75.9598C321.281 72.1419 325.433 69.1353 330.396 66.94C335.36 64.6492 341.039 63.5038 347.434 63.5038C355.833 63.5038 362.849 65.3651 368.48 69.0875C374.207 72.81 378.55 77.6778 381.509 83.691C384.467 89.7042 385.947 96.1947 385.947 103.162V110.464H316.795V98.0082H372.918L366.332 104.021C366.332 99.1536 365.617 95.0016 364.185 91.5655C362.849 88.1293 360.749 85.5045 357.885 83.691C355.117 81.7821 351.633 80.8276 347.434 80.8276C343.139 80.8276 339.512 81.7821 336.553 83.691C333.594 85.6 331.351 88.4157 329.824 92.1381C328.297 95.7652 327.533 100.156 327.533 105.31C327.533 110.178 328.249 114.473 329.68 118.195C331.112 121.822 333.355 124.686 336.41 126.786C339.464 128.79 343.425 129.792 348.293 129.792C352.874 129.792 356.597 128.885 359.46 127.072C362.419 125.163 364.376 122.872 365.33 120.2H384.515C383.37 125.545 381.127 130.222 377.786 134.231C374.541 138.239 370.389 141.389 365.33 143.68C360.367 145.875 354.688 146.973 348.293 146.973Z" fill="#010101"/>
<path d="M389.836 144.253L414.891 102.59L414.318 106.026L390.838 66.2241H413.459L428.635 93.4267H430.783L445.1 66.2241H466.433L444.098 106.026L444.528 103.019L470.871 144.253H448.25L430.21 115.189H428.063L411.169 144.253H389.836Z" fill="#010101"/>
<path d="M550.016 144.253L512.648 95.4311H497.901L542.857 39.7374H567.34L526.965 89.8474L526.393 79.6822L576.073 144.253H550.016ZM482.009 144.253V39.7374H503.485V144.253H482.009Z" fill="#010101"/>
<path d="M586.858 144.253V66.2241H607.761V144.253H586.858ZM576.12 81.8298V66.2241H607.761V81.8298H576.12ZM594.732 57.4906C590.628 57.4906 587.622 56.4407 585.713 54.3409C583.804 52.241 582.849 49.5685 582.849 46.3233C582.849 43.078 583.804 40.4055 585.713 38.3057C587.622 36.2058 590.58 35.1559 594.589 35.1559C598.693 35.1559 601.7 36.2058 603.609 38.3057C605.518 40.4055 606.472 43.078 606.472 46.3233C606.472 49.5685 605.518 52.241 603.609 54.3409C601.7 56.4407 598.741 57.4906 594.732 57.4906Z" fill="#010101"/>
<path d="M661.611 145.255C654.166 145.255 648.106 144.3 643.429 142.391C638.752 140.482 635.268 137.285 632.977 132.799C630.686 128.313 629.541 122.252 629.541 114.616L629.684 44.6052H649.155V115.761C649.155 119.484 650.158 122.395 652.162 124.495C654.166 126.499 657.03 127.502 660.752 127.502H672.779V145.255H661.611ZM617.371 81.6866V66.2241H672.779V81.6866H617.371Z" fill="#010101"/>
</svg>
