<svg width="292" height="88" viewBox="0 0 292 88" fill="none" xmlns="http://www.w3.org/2000/svg">
<path d="M18.0077 33.2386V87.8705L0 77.2818V20.8088L18.0077 33.2386Z" fill="#010101"/>
<path d="M19.8085 10.22L0 20.8087L39.617 38.4565V59.6338L21.1202 68.4577L18.0077 87.8703L27.912 83.0172L37.8162 78.164L57.6247 68.4577V29.6326L19.8085 10.22Z" fill="#010101"/>
<path d="M96.8955 72.5334V63.9191H105.882C108.154 63.9191 110.178 63.5679 111.955 62.8655C113.773 62.1631 115.302 61.1922 116.541 59.9527C117.822 58.6719 118.793 57.1639 119.454 55.4287C120.115 53.6521 120.445 51.6896 120.445 49.5411C120.445 47.3514 120.115 45.3889 119.454 43.6536C118.793 41.8771 117.822 40.369 116.541 39.1296C115.302 37.8901 113.773 36.9605 111.955 36.3407C110.178 35.6797 108.154 35.3492 105.882 35.3492H96.8955V26.7348H105.386C109.476 26.7348 113.029 27.3339 116.045 28.5321C119.103 29.7302 121.644 31.3828 123.668 33.49C125.734 35.5557 127.263 37.9107 128.254 40.555C129.287 43.1992 129.804 45.9673 129.804 48.8594V50.2229C129.804 52.9497 129.287 55.6559 128.254 58.3414C127.263 60.9856 125.734 63.382 123.668 65.5304C121.644 67.6375 119.103 69.3314 116.045 70.6122C113.029 71.893 109.476 72.5334 105.386 72.5334H96.8955ZM88.8389 72.5334V26.7348H98.1349V72.5334H88.8389Z" fill="#010101"/>
<path d="M150.763 73.463C147.871 73.463 145.33 72.9672 143.14 71.9756C140.951 70.9841 139.133 69.662 137.687 68.0093C136.241 66.3154 135.146 64.4355 134.402 62.3697C133.658 60.3039 133.287 58.1762 133.287 55.9864V54.8089C133.287 52.5779 133.658 50.4294 134.402 48.3636C135.146 46.2565 136.22 44.3767 137.625 42.724C139.071 41.0714 140.868 39.77 143.017 38.8197C145.165 37.8281 147.623 37.3323 150.391 37.3323C154.027 37.3323 157.064 38.138 159.502 39.7493C161.98 41.3606 163.86 43.4677 165.141 46.0706C166.422 48.6735 167.062 51.483 167.062 54.499V57.6597H137.129V52.268H161.423L158.572 54.8709C158.572 52.7638 158.262 50.9665 157.642 49.4792C157.064 47.9918 156.155 46.8556 154.915 46.0706C153.717 45.2443 152.209 44.8311 150.391 44.8311C148.532 44.8311 146.962 45.2443 145.681 46.0706C144.401 46.8969 143.43 48.1158 142.769 49.7271C142.108 51.2971 141.777 53.1976 141.777 55.4287C141.777 57.5358 142.087 59.395 142.707 61.0063C143.326 62.5763 144.297 63.8158 145.619 64.7247C146.942 65.5924 148.656 66.0262 150.763 66.0262C152.746 66.0262 154.358 65.6337 155.597 64.8487C156.878 64.0223 157.725 63.0308 158.138 61.8739H166.443C165.947 64.1876 164.976 66.2121 163.53 67.9473C162.125 69.6826 160.328 71.046 158.138 72.0376C155.99 72.9879 153.531 73.463 150.763 73.463Z" fill="#010101"/>
<path d="M168.746 72.2855L179.591 54.2512L179.343 55.7385L169.18 38.5098H178.971L185.541 50.2848H186.47L192.668 38.5098H201.902L192.234 55.7385L192.42 54.4371L203.823 72.2855H194.031L186.222 59.7048H185.293L177.98 72.2855H168.746Z" fill="#010101"/>
<path d="M238.082 72.2855L221.907 51.1525H215.523L234.983 27.0447H245.581L228.104 48.7355L227.856 44.3354L249.361 72.2855H238.082ZM208.644 72.2855V27.0447H217.94V72.2855H208.644Z" fill="#010101"/>
<path d="M254.029 72.2855V38.5098H263.078V72.2855H254.029ZM249.381 45.265V38.5098H263.078V45.265H249.381ZM257.438 34.7294C255.661 34.7294 254.36 34.275 253.534 33.366C252.707 32.4571 252.294 31.3002 252.294 29.8955C252.294 28.4907 252.707 27.3339 253.534 26.4249C254.36 25.516 255.641 25.0615 257.376 25.0615C259.153 25.0615 260.454 25.516 261.28 26.4249C262.107 27.3339 262.52 28.4907 262.52 29.8955C262.52 31.3002 262.107 32.4571 261.28 33.366C260.454 34.275 259.173 34.7294 257.438 34.7294Z" fill="#010101"/>
<path d="M286.387 72.7193C283.165 72.7193 280.541 72.3062 278.517 71.4799C276.492 70.6535 274.984 69.2695 273.993 67.3276C273.001 65.3858 272.505 62.7622 272.505 59.4569L272.567 29.1518H280.996V59.9527C280.996 61.5641 281.43 62.8242 282.297 63.7331C283.165 64.6008 284.404 65.0346 286.016 65.0346H291.221V72.7193H286.387ZM267.238 45.203V38.5098H291.221V45.203H267.238Z" fill="#010101"/>
<path d="M212.106 13.02V2.618H213.646V5.894L213.408 5.88C213.445 5.10533 213.604 4.45667 213.884 3.934C214.173 3.41133 214.556 3.024 215.032 2.772C215.508 2.51067 216.04 2.38 216.628 2.38C217.169 2.38 217.655 2.478 218.084 2.674C218.523 2.87 218.896 3.14533 219.204 3.5C219.521 3.85467 219.764 4.27 219.932 4.746C220.1 5.21267 220.184 5.71667 220.184 6.258V6.552C220.184 7.10267 220.1 7.616 219.932 8.092C219.773 8.55867 219.535 8.974 219.218 9.338C218.91 9.69267 218.537 9.97267 218.098 10.178C217.659 10.374 217.169 10.472 216.628 10.472C216.059 10.472 215.536 10.3553 215.06 10.122C214.593 9.87933 214.215 9.51067 213.926 9.016C213.637 8.512 213.473 7.86333 213.436 7.07L214.052 8.008V13.02H212.106ZM216.138 8.834C216.558 8.834 216.922 8.73133 217.23 8.526C217.547 8.32067 217.795 8.036 217.972 7.672C218.149 7.29867 218.238 6.87867 218.238 6.412C218.238 5.92667 218.149 5.50667 217.972 5.152C217.795 4.79733 217.547 4.522 217.23 4.326C216.922 4.12067 216.558 4.018 216.138 4.018C215.755 4.018 215.401 4.102 215.074 4.27C214.757 4.438 214.495 4.68533 214.29 5.012C214.094 5.33867 213.996 5.73067 213.996 6.188V6.748C213.996 7.18667 214.099 7.56 214.304 7.868C214.509 8.176 214.775 8.414 215.102 8.582C215.429 8.75 215.774 8.834 216.138 8.834Z" fill="#010101"/>
<path d="M224.989 10.486C224.317 10.486 223.724 10.3787 223.211 10.164C222.698 9.94933 222.264 9.66 221.909 9.296C221.554 8.92267 221.284 8.50267 221.097 8.036C220.92 7.56933 220.831 7.084 220.831 6.58V6.286C220.831 5.76333 220.924 5.26867 221.111 4.802C221.307 4.326 221.582 3.906 221.937 3.542C222.301 3.16867 222.74 2.87933 223.253 2.674C223.766 2.45933 224.345 2.352 224.989 2.352C225.633 2.352 226.212 2.45933 226.725 2.674C227.238 2.87933 227.672 3.16867 228.027 3.542C228.391 3.906 228.666 4.326 228.853 4.802C229.04 5.26867 229.133 5.76333 229.133 6.286V6.58C229.133 7.084 229.04 7.56933 228.853 8.036C228.676 8.50267 228.41 8.92267 228.055 9.296C227.7 9.66 227.266 9.94933 226.753 10.164C226.24 10.3787 225.652 10.486 224.989 10.486ZM224.989 8.82C225.465 8.82 225.866 8.71733 226.193 8.512C226.52 8.29733 226.767 8.01267 226.935 7.658C227.103 7.294 227.187 6.88333 227.187 6.426C227.187 5.95933 227.098 5.54867 226.921 5.194C226.753 4.83 226.501 4.54533 226.165 4.34C225.838 4.12533 225.446 4.018 224.989 4.018C224.532 4.018 224.135 4.12533 223.799 4.34C223.472 4.54533 223.22 4.83 223.043 5.194C222.866 5.54867 222.777 5.95933 222.777 6.426C222.777 6.88333 222.861 7.294 223.029 7.658C223.206 8.01267 223.458 8.29733 223.785 8.512C224.112 8.71733 224.513 8.82 224.989 8.82Z" fill="#010101"/>
<path d="M232.717 10.22L234.159 2.87H236.399L238.065 10.22H236.525L234.831 2.912H235.643L234.145 10.22H232.717ZM232.143 10.22L232.129 8.624H233.683V10.22H232.143ZM231.359 10.22L229.287 2.618H231.177L233.151 10.22H231.359ZM237.015 10.22V8.624H238.569L238.555 10.22H237.015ZM237.631 10.22L239.381 2.618H241.145L239.311 10.22H237.631Z" fill="#010101"/>
<path d="M245.355 10.486C244.702 10.486 244.128 10.374 243.633 10.15C243.148 9.926 242.742 9.62733 242.415 9.254C242.098 8.87133 241.855 8.44667 241.687 7.98C241.529 7.51333 241.449 7.03733 241.449 6.552V6.286C241.449 5.782 241.529 5.29667 241.687 4.83C241.855 4.354 242.098 3.934 242.415 3.57C242.742 3.19667 243.143 2.90267 243.619 2.688C244.095 2.464 244.646 2.352 245.271 2.352C246.093 2.352 246.779 2.534 247.329 2.898C247.889 3.25267 248.309 3.724 248.589 4.312C248.869 4.89067 249.009 5.516 249.009 6.188V6.888H242.275V5.698H247.791L247.189 6.286C247.189 5.80067 247.119 5.38533 246.979 5.04C246.839 4.69467 246.625 4.42867 246.335 4.242C246.055 4.05533 245.701 3.962 245.271 3.962C244.842 3.962 244.478 4.06 244.179 4.256C243.881 4.452 243.652 4.73667 243.493 5.11C243.344 5.474 243.269 5.91267 243.269 6.426C243.269 6.902 243.344 7.32667 243.493 7.7C243.643 8.064 243.871 8.35333 244.179 8.568C244.487 8.77333 244.879 8.876 245.355 8.876C245.831 8.876 246.219 8.78267 246.517 8.596C246.816 8.4 247.007 8.162 247.091 7.882H248.883C248.771 8.40467 248.557 8.862 248.239 9.254C247.922 9.646 247.516 9.94933 247.021 10.164C246.536 10.3787 245.981 10.486 245.355 10.486Z" fill="#010101"/>
<path d="M250.075 10.22V2.618H251.615V5.838H251.573C251.573 4.746 251.806 3.92 252.273 3.36C252.74 2.8 253.426 2.52 254.331 2.52H254.611V4.214H254.079C253.426 4.214 252.917 4.39133 252.553 4.746C252.198 5.09133 252.021 5.59533 252.021 6.258V10.22H250.075Z" fill="#010101"/>
<path d="M258.7 10.486C258.047 10.486 257.473 10.374 256.978 10.15C256.493 9.926 256.087 9.62733 255.76 9.254C255.443 8.87133 255.2 8.44667 255.032 7.98C254.873 7.51333 254.794 7.03733 254.794 6.552V6.286C254.794 5.782 254.873 5.29667 255.032 4.83C255.2 4.354 255.443 3.934 255.76 3.57C256.087 3.19667 256.488 2.90267 256.964 2.688C257.44 2.464 257.991 2.352 258.616 2.352C259.437 2.352 260.123 2.534 260.674 2.898C261.234 3.25267 261.654 3.724 261.934 4.312C262.214 4.89067 262.354 5.516 262.354 6.188V6.888H255.62V5.698H261.136L260.534 6.286C260.534 5.80067 260.464 5.38533 260.324 5.04C260.184 4.69467 259.969 4.42867 259.68 4.242C259.4 4.05533 259.045 3.962 258.616 3.962C258.187 3.962 257.823 4.06 257.524 4.256C257.225 4.452 256.997 4.73667 256.838 5.11C256.689 5.474 256.614 5.91267 256.614 6.426C256.614 6.902 256.689 7.32667 256.838 7.7C256.987 8.064 257.216 8.35333 257.524 8.568C257.832 8.77333 258.224 8.876 258.7 8.876C259.176 8.876 259.563 8.78267 259.862 8.596C260.161 8.4 260.352 8.162 260.436 7.882H262.228C262.116 8.40467 261.901 8.862 261.584 9.254C261.267 9.646 260.861 9.94933 260.366 10.164C259.881 10.3787 259.325 10.486 258.7 10.486Z" fill="#010101"/>
<path d="M266.57 10.472C266.038 10.472 265.548 10.374 265.1 10.178C264.652 9.982 264.264 9.70667 263.938 9.352C263.611 8.99733 263.359 8.58667 263.182 8.12C263.004 7.644 262.916 7.13067 262.916 6.58V6.286C262.916 5.74467 263 5.236 263.168 4.76C263.345 4.284 263.588 3.86867 263.896 3.514C264.213 3.15933 264.591 2.884 265.03 2.688C265.478 2.48267 265.972 2.38 266.514 2.38C267.111 2.38 267.634 2.51067 268.082 2.772C268.539 3.024 268.903 3.40667 269.174 3.92C269.444 4.43333 269.594 5.07733 269.622 5.852L269.048 5.18V0H270.994V10.22H269.454V6.986H269.79C269.762 7.76067 269.603 8.40933 269.314 8.932C269.024 9.44533 268.642 9.83267 268.166 10.094C267.699 10.346 267.167 10.472 266.57 10.472ZM267.004 8.834C267.386 8.834 267.736 8.75 268.054 8.582C268.371 8.40467 268.623 8.15267 268.81 7.826C269.006 7.49 269.104 7.098 269.104 6.65V6.09C269.104 5.642 269.006 5.26867 268.81 4.97C268.614 4.662 268.357 4.42867 268.04 4.27C267.722 4.102 267.377 4.018 267.004 4.018C266.584 4.018 266.21 4.12067 265.884 4.326C265.566 4.522 265.314 4.802 265.128 5.166C264.95 5.53 264.862 5.95467 264.862 6.44C264.862 6.92533 264.955 7.35 265.142 7.714C265.328 8.06867 265.58 8.344 265.898 8.54C266.224 8.736 266.593 8.834 267.004 8.834Z" fill="#010101"/>
<path d="M279.576 10.472C278.951 10.472 278.4 10.3413 277.924 10.08C277.448 9.80933 277.075 9.41733 276.804 8.904C276.534 8.39067 276.384 7.77 276.356 7.042H276.65V10.22H275.11V0H277.056V5.11L276.538 5.908C276.576 5.124 276.73 4.47067 277 3.948C277.28 3.42533 277.654 3.03333 278.12 2.772C278.587 2.51067 279.114 2.38 279.702 2.38C280.225 2.38 280.701 2.478 281.13 2.674C281.56 2.87 281.928 3.14533 282.236 3.5C282.544 3.84533 282.778 4.25133 282.936 4.718C283.104 5.18467 283.188 5.69333 283.188 6.244V6.538C283.188 7.08867 283.104 7.602 282.936 8.078C282.768 8.554 282.526 8.974 282.208 9.338C281.891 9.69267 281.508 9.97267 281.06 10.178C280.622 10.374 280.127 10.472 279.576 10.472ZM279.142 8.834C279.562 8.834 279.926 8.73133 280.234 8.526C280.552 8.31133 280.799 8.022 280.976 7.658C281.154 7.294 281.242 6.874 281.242 6.398C281.242 5.91267 281.154 5.49267 280.976 5.138C280.799 4.78333 280.552 4.508 280.234 4.312C279.926 4.116 279.562 4.018 279.142 4.018C278.76 4.018 278.405 4.102 278.078 4.27C277.761 4.438 277.5 4.68533 277.294 5.012C277.098 5.33867 277 5.73067 277 6.188V6.748C277 7.18667 277.103 7.56 277.308 7.868C277.514 8.176 277.78 8.414 278.106 8.582C278.433 8.75 278.778 8.834 279.142 8.834Z" fill="#010101"/>
<path d="M283.951 13.216V11.55H285.379C285.65 11.55 285.874 11.5127 286.051 11.438C286.238 11.3727 286.392 11.2607 286.513 11.102C286.635 10.9527 286.728 10.7427 286.793 10.472L288.837 2.618H290.699L288.445 10.892C288.296 11.4613 288.086 11.914 287.815 12.25C287.545 12.5953 287.195 12.8427 286.765 12.992C286.345 13.1413 285.823 13.216 285.197 13.216H283.951ZM286.317 10.052V8.512H287.941V10.052H286.317ZM285.659 10.052L283.195 2.618H285.155L287.493 10.052H285.659Z" fill="#010101"/>
</svg>
