<svg xmlns="http://www.w3.org/2000/svg" width="400" height="400" viewBox="0 0 400 400"><path d="M 222.123 128.981 C 217.891 130.007, 214.086 132.775, 211.500 136.711 C 209.856 139.212, 208.626 139.860, 204.592 140.349 C 198.345 141.105, 192.606 144.891, 190.020 149.961 C 187.408 155.081, 187.327 163.383, 189.848 167.500 C 191.481 170.166, 191.525 170.748, 190.241 172.730 C 182.662 184.429, 191.664 200.895, 205.718 201.039 C 208.859 201.071, 209.839 201.615, 211.500 204.251 C 218.639 215.582, 235.361 215.582, 242.500 204.251 C 244.162 201.613, 245.140 201.071, 248.290 201.039 C 255.948 200.961, 263.941 194.647, 265.983 187.062 C 267.215 182.489, 266.485 180, 263.912 180 C 262.675 180, 261.841 180.935, 261.458 182.750 C 259.505 192.009, 255.494 195.500, 246.812 195.500 L 241.039 195.500 238.769 200 C 233.346 210.754, 219.715 210.393, 214.837 199.365 L 212.861 194.898 208.607 195.536 C 196.537 197.346, 188.652 184.863, 195.500 174.785 C 196.875 172.762, 198 170.877, 198 170.597 C 198 170.318, 196.875 168.431, 195.500 166.405 C 188.866 156.629, 195.464 145.436, 207.691 145.722 C 212.855 145.843, 212.914 145.810, 214.927 141.650 C 217.397 136.549, 221.419 134, 227 134 C 232.605 134, 236.605 136.553, 239.110 141.728 L 241.178 146 247.104 146 C 252.418 146, 253.402 146.342, 256.643 149.312 C 259.641 152.060, 260.336 153.466, 260.720 157.562 C 261.109 161.711, 260.760 163.120, 258.534 166.379 C 255.833 170.335, 255.777 173, 258.397 173 C 261.294 173, 265.126 167.443, 266.441 161.334 C 268.671 150.971, 258.569 140.030, 246.750 140.006 C 245.238 140.003, 244 139.585, 244 139.077 C 244 137.504, 238.900 131.999, 236.131 130.582 C 232.501 128.726, 226.163 128.001, 222.123 128.981 M 220.299 152.960 C 213.779 156.935, 211.235 168.766, 217.410 166.396 C 218.284 166.061, 219 165.180, 219 164.440 C 219 161.594, 221.376 158.087, 224.056 156.977 C 227.365 155.606, 230.328 156.362, 233.034 159.267 C 236.240 162.708, 235.527 166.340, 230.542 171.952 C 225.247 177.914, 222.985 184.414, 225.374 186.803 C 226.629 188.058, 227.174 188.100, 228.450 187.042 C 229.302 186.334, 230 184.881, 230 183.812 C 230 181.058, 231.702 178.138, 236.142 173.272 C 239.367 169.738, 239.998 168.344, 239.985 164.772 C 239.966 159.322, 238.334 156.142, 234.088 153.280 C 229.911 150.466, 224.591 150.342, 220.299 152.960 M 170.799 158.912 C 157.808 167.151, 149.403 180.271, 146.865 196.272 C 145.894 202.395, 144.747 205.064, 139.359 213.733 C 135.862 219.361, 133 225.073, 133 226.426 C 133 229.758, 136.509 232, 141.723 232 L 146 232 146.002 242.250 C 146.004 258.140, 149.770 262.995, 162.095 262.998 C 168.647 263, 170.961 264.826, 171.925 270.753 C 172.391 273.618, 173.001 274.500, 174.517 274.500 C 177.146 274.500, 177.747 268.345, 175.536 264.070 C 173.233 259.616, 170.124 258.026, 162.388 257.342 C 153.692 256.573, 152 255.198, 152 248.900 L 152 244.110 156.750 243.805 C 160.732 243.549, 161.500 243.177, 161.500 241.500 C 161.500 239.823, 160.732 239.451, 156.750 239.195 L 152 238.890 151.985 234.195 C 151.963 227.565, 151.030 226.583, 144.197 226.001 L 138.320 225.500 145.017 214.820 C 151.096 205.126, 151.764 203.533, 152.242 197.580 C 153.256 184.941, 162.720 170.047, 173.896 163.500 C 177.658 161.297, 178.949 159.972, 178.759 158.510 C 178.368 155.506, 175.979 155.627, 170.799 158.912 M 225.278 194.122 C 223.742 195.658, 224.811 198, 227.048 198 C 229.305 198, 230.204 196.695, 229.396 194.590 C 228.684 192.734, 226.872 192.528, 225.278 194.122 M 248.546 210.176 C 248.300 210.904, 247.585 213.525, 246.958 216 C 244.963 223.866, 239.961 231.797, 231.924 239.834 C 223.014 248.744, 222.746 249.501, 223.198 264.500 C 223.485 274.003, 223.612 274.516, 225.750 274.820 C 227.952 275.132, 228 274.931, 228 265.313 C 228 259.909, 228.403 254.083, 228.895 252.366 C 229.418 250.541, 232.932 246.154, 237.362 241.795 C 243.221 236.031, 245.780 232.566, 248.666 226.488 C 252.927 217.516, 253.852 209.830, 250.747 209.205 C 249.783 209.011, 248.793 209.448, 248.546 210.176" stroke="none" fill="#f5f2fb" fill-rule="evenodd"></path><path d="M 179.500 82.409 C 154.278 87.280, 133.588 98.162, 115.875 115.875 C 100.362 131.389, 90.102 149.243, 84.200 171 C 81.843 179.687, 81.622 182.168, 81.622 200 C 81.622 217.832, 81.843 220.313, 84.200 229 C 90.314 251.539, 100.398 268.803, 116.908 285 C 133.526 301.303, 153.090 311.971, 175 316.675 C 186.875 319.225, 213.125 319.225, 225 316.675 C 246.910 311.971, 266.474 301.303, 283.092 285 C 299.602 268.803, 309.686 251.539, 315.800 229 C 318.157 220.313, 318.378 217.832, 318.378 200 C 318.378 182.168, 318.157 179.687, 315.800 171 C 309.898 149.243, 299.638 131.389, 284.125 115.875 C 268.542 100.292, 250.940 90.196, 229.191 84.364 C 221.044 82.180, 216.871 81.710, 203 81.412 C 191.873 81.173, 184.221 81.498, 179.500 82.409 M 222.123 128.981 C 217.891 130.007, 214.086 132.775, 211.500 136.711 C 209.856 139.212, 208.626 139.860, 204.592 140.349 C 198.345 141.105, 192.606 144.891, 190.020 149.961 C 187.408 155.081, 187.327 163.383, 189.848 167.500 C 191.481 170.166, 191.525 170.748, 190.241 172.730 C 182.662 184.429, 191.664 200.895, 205.718 201.039 C 208.859 201.071, 209.839 201.615, 211.500 204.251 C 218.639 215.582, 235.361 215.582, 242.500 204.251 C 244.162 201.613, 245.140 201.071, 248.290 201.039 C 255.948 200.961, 263.941 194.647, 265.983 187.062 C 267.215 182.489, 266.485 180, 263.912 180 C 262.675 180, 261.841 180.935, 261.458 182.750 C 259.505 192.009, 255.494 195.500, 246.812 195.500 L 241.039 195.500 238.769 200 C 233.346 210.754, 219.715 210.393, 214.837 199.365 L 212.861 194.898 208.607 195.536 C 196.537 197.346, 188.652 184.863, 195.500 174.785 C 196.875 172.762, 198 170.877, 198 170.597 C 198 170.318, 196.875 168.431, 195.500 166.405 C 188.866 156.629, 195.464 145.436, 207.691 145.722 C 212.855 145.843, 212.914 145.810, 214.927 141.650 C 217.397 136.549, 221.419 134, 227 134 C 232.605 134, 236.605 136.553, 239.110 141.728 L 241.178 146 247.104 146 C 252.418 146, 253.402 146.342, 256.643 149.312 C 259.641 152.060, 260.336 153.466, 260.720 157.562 C 261.109 161.711, 260.760 163.120, 258.534 166.379 C 255.833 170.335, 255.777 173, 258.397 173 C 261.294 173, 265.126 167.443, 266.441 161.334 C 268.671 150.971, 258.569 140.030, 246.750 140.006 C 245.238 140.003, 244 139.585, 244 139.077 C 244 137.504, 238.900 131.999, 236.131 130.582 C 232.501 128.726, 226.163 128.001, 222.123 128.981 M 220.299 152.960 C 213.779 156.935, 211.235 168.766, 217.410 166.396 C 218.284 166.061, 219 165.180, 219 164.440 C 219 161.594, 221.376 158.087, 224.056 156.977 C 227.365 155.606, 230.328 156.362, 233.034 159.267 C 236.240 162.708, 235.527 166.340, 230.542 171.952 C 225.247 177.914, 222.985 184.414, 225.374 186.803 C 226.629 188.058, 227.174 188.100, 228.450 187.042 C 229.302 186.334, 230 184.881, 230 183.812 C 230 181.058, 231.702 178.138, 236.142 173.272 C 239.367 169.738, 239.998 168.344, 239.985 164.772 C 239.966 159.322, 238.334 156.142, 234.088 153.280 C 229.911 150.466, 224.591 150.342, 220.299 152.960 M 170.799 158.912 C 157.808 167.151, 149.403 180.271, 146.865 196.272 C 145.894 202.395, 144.747 205.064, 139.359 213.733 C 135.862 219.361, 133 225.073, 133 226.426 C 133 229.758, 136.509 232, 141.723 232 L 146 232 146.002 242.250 C 146.004 258.140, 149.770 262.995, 162.095 262.998 C 168.647 263, 170.961 264.826, 171.925 270.753 C 172.391 273.618, 173.001 274.500, 174.517 274.500 C 177.146 274.500, 177.747 268.345, 175.536 264.070 C 173.233 259.616, 170.124 258.026, 162.388 257.342 C 153.692 256.573, 152 255.198, 152 248.900 L 152 244.110 156.750 243.805 C 160.732 243.549, 161.500 243.177, 161.500 241.500 C 161.500 239.823, 160.732 239.451, 156.750 239.195 L 152 238.890 151.985 234.195 C 151.963 227.565, 151.030 226.583, 144.197 226.001 L 138.320 225.500 145.017 214.820 C 151.096 205.126, 151.764 203.533, 152.242 197.580 C 153.256 184.941, 162.720 170.047, 173.896 163.500 C 177.658 161.297, 178.949 159.972, 178.759 158.510 C 178.368 155.506, 175.979 155.627, 170.799 158.912 M 225.278 194.122 C 223.742 195.658, 224.811 198, 227.048 198 C 229.305 198, 230.204 196.695, 229.396 194.590 C 228.684 192.734, 226.872 192.528, 225.278 194.122 M 248.546 210.176 C 248.300 210.904, 247.585 213.525, 246.958 216 C 244.963 223.866, 239.961 231.797, 231.924 239.834 C 223.014 248.744, 222.746 249.501, 223.198 264.500 C 223.485 274.003, 223.612 274.516, 225.750 274.820 C 227.952 275.132, 228 274.931, 228 265.313 C 228 259.909, 228.403 254.083, 228.895 252.366 C 229.418 250.541, 232.932 246.154, 237.362 241.795 C 243.221 236.031, 245.780 232.566, 248.666 226.488 C 252.927 217.516, 253.852 209.830, 250.747 209.205 C 249.783 209.011, 248.793 209.448, 248.546 210.176" stroke="none" fill="#5c24e3" fill-rule="evenodd"></path></svg>