<svg xmlns="http://www.w3.org/2000/svg" width="400" height="400" viewBox="0 0 400 400"><path d="M 198.391 198.117 C 164.073 232.419, 136.146 260.937, 136.330 261.492 C 137.651 265.458, 142.081 261.413, 201.646 201.854 C 235.391 168.113, 263 139.744, 263 138.812 C 263 137.880, 262.502 136.810, 261.894 136.434 C 261.245 136.034, 234.954 161.572, 198.391 198.117 M 198.015 144.971 C 196.771 147.296, 196.701 156.979, 197.914 158.896 C 198.400 159.663, 199.519 160.015, 200.399 159.677 C 202.645 158.815, 202.749 144.501, 200.515 143.644 C 199.651 143.313, 198.606 143.868, 198.015 144.971 M 159.380 152.452 C 158.789 153.993, 163.397 163.254, 165.711 165.175 C 166.741 166.030, 167.377 166.023, 168.252 165.148 C 169.142 164.258, 168.659 162.438, 166.219 157.490 C 163.109 151.183, 160.581 149.321, 159.380 152.452 M 181.500 166.591 C 166.981 169.825, 153.458 176.644, 141.500 186.760 C 133.749 193.317, 130.931 197.331, 132.780 199.180 C 133.632 200.032, 135.662 198.674, 140.841 193.789 C 149.355 185.757, 154.877 181.907, 164.256 177.464 C 178.705 170.618, 189.854 169.060, 215.477 170.307 C 218.450 170.451, 219.535 170.090, 219.776 168.876 C 220.277 166.350, 217.559 165.803, 202.500 165.403 C 192.308 165.132, 186.596 165.455, 181.500 166.591 M 127.325 171.595 C 126.478 173.802, 136.198 183.522, 138.405 182.675 C 140.829 181.745, 140.399 180.660, 135.407 175.108 C 130.662 169.831, 128.383 168.839, 127.325 171.595 M 264.603 174.896 C 259.829 179.742, 258.940 183, 262.391 183 C 264.148 183, 273.148 172.944, 272.671 171.512 C 271.878 169.129, 269.161 170.268, 264.603 174.896 M 236.250 173.731 C 235.563 173.970, 235 175.212, 235 176.490 C 235 178.215, 228.152 185.468, 208.406 204.657 C 193.780 218.871, 181.405 230.556, 180.906 230.625 C 180.408 230.694, 179.550 230.806, 179 230.875 C 177.320 231.085, 177.887 233.869, 179.820 234.904 C 180.821 235.439, 185.597 236.404, 190.434 237.048 C 208.909 239.506, 230.332 234.095, 246.786 222.814 C 253.232 218.396, 261 211.027, 261 209.332 C 261 205.899, 257.755 207.047, 251.619 212.648 C 244.378 219.259, 237.068 223.895, 229 226.996 L 223.500 229.109 241.291 211.304 L 259.081 193.500 261.897 196.912 C 264.712 200.323, 268 200.745, 268 197.695 C 268 195.535, 255.156 183.703, 247.481 178.792 C 239.738 173.838, 238.082 173.092, 236.250 173.731 M 195.184 177.071 C 186.098 178.854, 179.061 185.901, 176.951 195.329 C 175.492 201.846, 177.081 209.333, 179.805 208.784 C 181.204 208.502, 181.443 207.466, 181.177 202.864 C 180.821 196.730, 182.656 191.093, 186.298 187.132 C 190.461 182.603, 202.056 178.806, 200.666 182.427 C 200.365 183.212, 200.798 184.418, 201.629 185.107 C 202.885 186.149, 203.540 185.868, 205.533 183.430 C 207.986 180.429, 208.579 178.448, 207.250 177.690 C 205.376 176.622, 199.112 176.301, 195.184 177.071 M 213.644 205.856 L 187.802 231.713 192.100 232.400 L 196.398 233.087 221.201 208.299 L 246.004 183.511 243.752 181.778 C 242.513 180.825, 241.047 180.034, 240.493 180.022 C 239.939 180.010, 227.857 191.635, 213.644 205.856 M 227.080 209.420 L 203.731 232.785 208.616 232.286 C 213.445 231.794, 213.732 231.557, 234.288 211.104 L 255.075 190.419 252.752 188.237 L 250.429 186.055 227.080 209.420 M 139.333 208.574 C 138.532 210.661, 145.510 217.748, 154.272 223.747 C 160.171 227.785, 161.231 228.198, 162.486 226.942 C 164.377 225.050, 163.653 224.127, 156.500 219.307 C 153.200 217.084, 148.640 213.405, 146.368 211.132 C 141.924 206.689, 140.285 206.093, 139.333 208.574" stroke="none" fill="#f3f0fb" fill-rule="evenodd"></path><path d="M 179.500 82.409 C 154.278 87.280, 133.588 98.162, 115.875 115.875 C 100.362 131.389, 90.102 149.243, 84.200 171 C 81.843 179.687, 81.622 182.168, 81.622 200 C 81.622 217.832, 81.843 220.313, 84.200 229 C 90.314 251.539, 100.398 268.803, 116.908 285 C 133.526 301.303, 153.090 311.971, 175 316.675 C 186.875 319.225, 213.125 319.225, 225 316.675 C 246.910 311.971, 266.474 301.303, 283.092 285 C 299.602 268.803, 309.686 251.539, 315.800 229 C 318.157 220.313, 318.378 217.832, 318.378 200 C 318.378 182.168, 318.157 179.687, 315.800 171 C 309.898 149.243, 299.638 131.389, 284.125 115.875 C 268.542 100.292, 250.940 90.196, 229.191 84.364 C 221.044 82.180, 216.871 81.710, 203 81.412 C 191.873 81.173, 184.221 81.498, 179.500 82.409 M 198.391 198.117 C 164.073 232.419, 136.146 260.937, 136.330 261.492 C 137.651 265.458, 142.081 261.413, 201.646 201.854 C 235.391 168.113, 263 139.744, 263 138.812 C 263 137.880, 262.502 136.810, 261.894 136.434 C 261.245 136.034, 234.954 161.572, 198.391 198.117 M 198.015 144.971 C 196.771 147.296, 196.701 156.979, 197.914 158.896 C 198.400 159.663, 199.519 160.015, 200.399 159.677 C 202.645 158.815, 202.749 144.501, 200.515 143.644 C 199.651 143.313, 198.606 143.868, 198.015 144.971 M 159.380 152.452 C 158.789 153.993, 163.397 163.254, 165.711 165.175 C 166.741 166.030, 167.377 166.023, 168.252 165.148 C 169.142 164.258, 168.659 162.438, 166.219 157.490 C 163.109 151.183, 160.581 149.321, 159.380 152.452 M 181.500 166.591 C 166.981 169.825, 153.458 176.644, 141.500 186.760 C 133.749 193.317, 130.931 197.331, 132.780 199.180 C 133.632 200.032, 135.662 198.674, 140.841 193.789 C 149.355 185.757, 154.877 181.907, 164.256 177.464 C 178.705 170.618, 189.854 169.060, 215.477 170.307 C 218.450 170.451, 219.535 170.090, 219.776 168.876 C 220.277 166.350, 217.559 165.803, 202.500 165.403 C 192.308 165.132, 186.596 165.455, 181.500 166.591 M 127.325 171.595 C 126.478 173.802, 136.198 183.522, 138.405 182.675 C 140.829 181.745, 140.399 180.660, 135.407 175.108 C 130.662 169.831, 128.383 168.839, 127.325 171.595 M 264.603 174.896 C 259.829 179.742, 258.940 183, 262.391 183 C 264.148 183, 273.148 172.944, 272.671 171.512 C 271.878 169.129, 269.161 170.268, 264.603 174.896 M 236.250 173.731 C 235.563 173.970, 235 175.212, 235 176.490 C 235 178.215, 228.152 185.468, 208.406 204.657 C 193.780 218.871, 181.405 230.556, 180.906 230.625 C 180.408 230.694, 179.550 230.806, 179 230.875 C 177.320 231.085, 177.887 233.869, 179.820 234.904 C 180.821 235.439, 185.597 236.404, 190.434 237.048 C 208.909 239.506, 230.332 234.095, 246.786 222.814 C 253.232 218.396, 261 211.027, 261 209.332 C 261 205.899, 257.755 207.047, 251.619 212.648 C 244.378 219.259, 237.068 223.895, 229 226.996 L 223.500 229.109 241.291 211.304 L 259.081 193.500 261.897 196.912 C 264.712 200.323, 268 200.745, 268 197.695 C 268 195.535, 255.156 183.703, 247.481 178.792 C 239.738 173.838, 238.082 173.092, 236.250 173.731 M 195.184 177.071 C 186.098 178.854, 179.061 185.901, 176.951 195.329 C 175.492 201.846, 177.081 209.333, 179.805 208.784 C 181.204 208.502, 181.443 207.466, 181.177 202.864 C 180.821 196.730, 182.656 191.093, 186.298 187.132 C 190.461 182.603, 202.056 178.806, 200.666 182.427 C 200.365 183.212, 200.798 184.418, 201.629 185.107 C 202.885 186.149, 203.540 185.868, 205.533 183.430 C 207.986 180.429, 208.579 178.448, 207.250 177.690 C 205.376 176.622, 199.112 176.301, 195.184 177.071 M 213.644 205.856 L 187.802 231.713 192.100 232.400 L 196.398 233.087 221.201 208.299 L 246.004 183.511 243.752 181.778 C 242.513 180.825, 241.047 180.034, 240.493 180.022 C 239.939 180.010, 227.857 191.635, 213.644 205.856 M 227.080 209.420 L 203.731 232.785 208.616 232.286 C 213.445 231.794, 213.732 231.557, 234.288 211.104 L 255.075 190.419 252.752 188.237 L 250.429 186.055 227.080 209.420 M 139.333 208.574 C 138.532 210.661, 145.510 217.748, 154.272 223.747 C 160.171 227.785, 161.231 228.198, 162.486 226.942 C 164.377 225.050, 163.653 224.127, 156.500 219.307 C 153.200 217.084, 148.640 213.405, 146.368 211.132 C 141.924 206.689, 140.285 206.093, 139.333 208.574" stroke="none" fill="#5c24e3" fill-rule="evenodd"></path></svg>