<svg width="673" height="181" viewBox="0 0 673 181" fill="none" xmlns="http://www.w3.org/2000/svg">
<path d="M41.6014 53.9146V180.125L0 155.663V25.1995L41.6014 53.9146Z" fill="#010101"/>
<path d="M45.7615 0.737305L0 25.1992L91.523 65.9691V114.893L48.7918 135.278L41.6014 180.125L64.4821 168.913L87.3629 157.701L133.124 135.278V45.5842L45.7615 0.737305Z" fill="#010101"/>
<path d="M223.848 144.694V124.793H244.608C249.857 124.793 254.534 123.982 258.638 122.359C262.838 120.736 266.37 118.493 269.233 115.63C272.192 112.671 274.435 109.187 275.962 105.178C277.489 101.074 278.253 96.5404 278.253 91.5772C278.253 86.5184 277.489 81.9847 275.962 77.9759C274.435 73.8716 272.192 70.3878 269.233 67.5244C266.37 64.6609 262.838 62.5133 258.638 61.0816C254.534 59.5545 249.857 58.7909 244.608 58.7909H223.848V38.89H243.462C252.911 38.89 261.12 40.274 268.088 43.042C275.151 45.81 281.021 49.6279 285.698 54.4957C290.47 59.2681 294.002 64.7086 296.292 70.8173C298.679 76.9259 299.872 83.3209 299.872 90.0023V93.152C299.872 99.4516 298.679 105.703 296.292 111.908C294.002 118.016 290.47 123.552 285.698 128.515C281.021 133.383 275.151 137.297 268.088 140.255C261.12 143.214 252.911 144.694 243.462 144.694H223.848ZM205.235 144.694V38.89H226.711V144.694H205.235Z" fill="#010101"/>
<path d="M348.293 146.841C341.611 146.841 335.741 145.696 330.683 143.405C325.624 141.115 321.424 138.06 318.084 134.242C314.743 130.329 312.214 125.986 310.496 121.214C308.777 116.441 307.918 111.526 307.918 106.467V103.747C307.918 98.5926 308.777 93.6293 310.496 88.8569C312.214 83.9891 314.695 79.6462 317.94 75.8283C321.281 72.0104 325.433 69.0038 330.396 66.8085C335.36 64.5177 341.039 63.3724 347.434 63.3724C355.833 63.3724 362.849 65.2336 368.48 68.9561C374.207 72.6785 378.55 77.5464 381.509 83.5596C384.467 89.5728 385.947 96.0632 385.947 103.031V110.333H316.795V97.8767H372.918L366.332 103.89C366.332 99.0221 365.617 94.8701 364.185 91.434C362.849 87.9979 360.749 85.3731 357.885 83.5596C355.117 81.6506 351.633 80.6961 347.434 80.6961C343.139 80.6961 339.512 81.6506 336.553 83.5596C333.594 85.4685 331.351 88.2842 329.824 92.0067C328.297 95.6337 327.533 100.024 327.533 105.178C327.533 110.046 328.249 114.341 329.68 118.064C331.112 121.691 333.355 124.554 336.41 126.654C339.464 128.659 343.425 129.661 348.293 129.661C352.874 129.661 356.597 128.754 359.46 126.941C362.419 125.032 364.376 122.741 365.33 120.068H384.515C383.37 125.413 381.127 130.09 377.786 134.099C374.541 138.108 370.389 141.258 365.33 143.548C360.367 145.744 354.688 146.841 348.293 146.841Z" fill="#010101"/>
<path d="M389.836 144.121L414.891 102.458L414.318 105.894L390.838 66.0926H413.459L428.635 93.2952H430.783L445.1 66.0926H466.433L444.098 105.894L444.528 102.888L470.871 144.121H448.25L430.21 115.057H428.063L411.169 144.121H389.836Z" fill="#010101"/>
<path d="M550.016 144.121L512.648 95.2996H497.901L542.857 39.6059H567.34L526.965 89.7159L526.393 79.5508L576.073 144.121H550.016ZM482.009 144.121V39.6059H503.485V144.121H482.009Z" fill="#010101"/>
<path d="M586.858 144.121V66.0926H607.761V144.121H586.858ZM576.12 81.6983V66.0926H607.761V81.6983H576.12ZM594.732 57.3592C590.628 57.3592 587.622 56.3092 585.713 54.2094C583.804 52.1095 582.849 49.437 582.849 46.1918C582.849 42.9466 583.804 40.274 585.713 38.1742C587.622 36.0743 590.58 35.0244 594.589 35.0244C598.693 35.0244 601.7 36.0743 603.609 38.1742C605.518 40.274 606.472 42.9466 606.472 46.1918C606.472 49.437 605.518 52.1095 603.609 54.2094C601.7 56.3092 598.741 57.3592 594.732 57.3592Z" fill="#010101"/>
<path d="M661.611 145.123C654.166 145.123 648.106 144.169 643.429 142.26C638.752 140.351 635.268 137.153 632.977 132.667C630.686 128.181 629.541 122.12 629.541 114.485L629.684 44.4737H649.155V115.63C649.155 119.352 650.158 122.264 652.162 124.363C654.166 126.368 657.03 127.37 660.752 127.37H672.779V145.123H661.611ZM617.371 81.5552V66.0926H672.779V81.5552H617.371Z" fill="#010101"/>
</svg>
