<svg xmlns="http://www.w3.org/2000/svg" width="400" height="400" viewBox="0 0 400 400"><path d="M 244.185 135.684 C 243.462 135.973, 242.494 137.200, 242.034 138.410 C 241.375 140.143, 234.897 143.221, 211.507 152.913 C 189.782 161.915, 181.519 164.919, 180.708 164.108 C 180.018 163.418, 174.986 163, 167.371 163 C 154.768 163, 152 163.823, 152 167.571 C 152 168.567, 150.810 169, 148.073 169 C 145.021 169, 143.683 169.587, 142.073 171.635 C 140.256 173.944, 140 175.653, 140 185.461 C 140 195.865, 140.163 196.804, 142.314 198.826 C 143.800 200.222, 145.910 201, 148.206 201 C 151.162 201, 151.889 201.423, 152.394 203.433 C 152.730 204.772, 153.904 206.152, 155.002 206.501 C 156.881 207.097, 157 208.019, 157 221.952 C 157 236.654, 156.980 236.783, 154.500 238.408 C 151.791 240.183, 151.134 244.514, 153.035 248.066 C 153.976 249.825, 155.240 250, 166.964 250 C 177.352 250, 180.163 249.695, 181.429 248.429 C 183.839 246.019, 183.390 241.266, 180.500 238.588 C 178.254 236.506, 178 235.495, 178 228.635 L 178 221 180.777 221 C 185.799 221, 188 218.525, 188 212.876 C 188 207.043, 186.995 207.032, 201.290 213.014 L 210.500 216.868 211.247 221.967 C 212.242 228.770, 215.072 234.050, 219.966 238.238 L 224 241.692 224 251.264 C 224 256.529, 224.273 261.548, 224.607 262.418 C 225.470 264.668, 228.972 264.375, 231.686 261.826 L 234 259.651 236.411 261.916 C 237.737 263.162, 239.649 264.023, 240.661 263.830 C 242.279 263.520, 242.560 262.134, 243 252.307 L 243.500 241.137 247.741 238.068 C 250.114 236.352, 253.240 235, 254.836 235 C 261.136 235, 261 236.105, 261 184.826 C 261 131.168, 261.727 134.942, 251.421 135.079 C 248.165 135.122, 244.908 135.395, 244.185 135.684 M 245.710 138.623 C 245.320 139.014, 245 153.349, 245 170.479 L 245 201.624 247.908 203.774 C 249.507 204.956, 252.037 208.421, 253.531 211.473 C 255.788 216.087, 256.155 217.906, 255.706 222.261 C 255.409 225.143, 254.840 228.558, 254.440 229.851 C 253.837 231.805, 254.034 232.140, 255.607 231.837 C 257.432 231.486, 257.500 229.802, 257.500 184.986 L 257.500 138.500 251.960 138.206 C 248.913 138.045, 246.101 138.232, 245.710 138.623 M 235 146.358 L 229.500 148.622 229.233 173.811 L 228.966 199 233.901 199 C 236.616 199, 239.548 199.273, 240.418 199.607 C 241.837 200.152, 242 197.326, 242 172.107 C 242 156.648, 241.662 144.021, 241.250 144.047 C 240.838 144.072, 238.025 145.112, 235 146.358 M 204.500 159.047 L 183.500 167.790 183.500 185.072 L 183.500 202.354 197.500 208.144 C 205.200 211.329, 211.838 213.949, 212.250 213.967 C 212.662 213.985, 213 213.324, 213 212.497 C 213 210.934, 221.168 202.248, 224.281 200.500 C 225.926 199.576, 226.041 197.621, 225.781 174.902 L 225.500 150.304 204.500 159.047 M 155.485 167.250 C 155.237 167.938, 155.138 176.375, 155.267 186 L 155.500 203.500 167.250 203.782 L 179 204.063 179 185.032 L 179 166 167.469 166 C 159.151 166, 155.811 166.348, 155.485 167.250 M 144.200 173.200 C 143.418 173.982, 143 178.089, 143 185 C 143 196.759, 143.544 198, 148.700 198 L 152 198 152 185 L 152 172 148.700 172 C 146.885 172, 144.860 172.540, 144.200 173.200 M 225.384 203.913 C 217.524 207.483, 212.879 217.076, 215.054 225.250 C 219.797 243.080, 243.399 245.207, 251.110 228.500 C 253.456 223.418, 253.454 218.575, 251.104 213.500 C 246.348 203.228, 235.663 199.245, 225.384 203.913 M 180.250 206.291 C 178.324 207.160, 178 208.075, 178 212.653 C 178 217.257, 178.266 218, 179.918 218 C 184.200 218, 185 216.977, 185 211.500 C 185 205.758, 183.960 204.617, 180.250 206.291 M 225.371 207.435 C 208.669 217.686, 222.377 243.120, 240.326 235.180 C 248.195 231.699, 251.606 223.493, 248.530 215.440 C 244.938 206.034, 233.881 202.212, 225.371 207.435 M 160 222.500 L 160 238 167.500 238 L 175 238 175 222.500 L 175 207 167.500 207 L 160 207 160 222.500 M 227.304 209.956 C 222.285 213.017, 220.671 216.229, 221.231 222.049 C 222.595 236.247, 240.862 238.113, 245.978 224.576 C 248.079 219.016, 245.178 212.262, 239.540 209.586 C 235.087 207.473, 231.183 207.591, 227.304 209.956 M 230.447 213.440 C 229.568 214.783, 227.870 216.020, 226.674 216.190 C 224.246 216.536, 223.106 220.506, 224.915 222.315 C 225.512 222.912, 226 224.638, 226 226.150 C 226 229.521, 228.493 231.143, 231.763 229.900 C 233.267 229.328, 234.860 229.390, 236.129 230.069 C 238.741 231.467, 241 229.675, 241 226.206 C 241 224.804, 241.769 222.808, 242.708 221.770 C 244.682 219.589, 243.542 216.747, 240.450 216.140 C 239.440 215.941, 237.768 214.704, 236.734 213.390 C 234.341 210.347, 232.464 210.362, 230.447 213.440 M 231.732 217 C 230.790 218.100, 229.330 219, 228.487 219 C 227.113 219, 227.115 219.245, 228.500 221.359 C 229.350 222.657, 229.791 224.382, 229.480 225.192 C 229.032 226.358, 229.865 226.667, 233.457 226.667 C 237.337 226.667, 238 226.374, 238 224.662 C 238 223.560, 238.745 221.835, 239.655 220.829 C 241.209 219.111, 241.180 219, 239.163 219 C 237.983 219, 236.455 218.100, 235.768 217 C 235.081 215.900, 234.277 215, 233.982 215 C 233.686 215, 232.674 215.900, 231.732 217 M 155.184 243.750 L 155.500 246.500 167.250 246.782 L 179 247.063 179 244.032 L 179 241 166.934 241 L 154.867 241 155.184 243.750 M 233.250 242.740 L 227 243.095 227 252.235 L 227 261.374 229.805 258.687 C 231.347 257.209, 233.010 256, 233.500 256 C 233.990 256, 235.653 257.209, 237.195 258.687 L 240 261.374 240 251.687 C 240 246.359, 239.887 242.087, 239.750 242.193 C 239.613 242.299, 236.688 242.545, 233.250 242.740" stroke="none" fill="#fceadb" fill-rule="evenodd"></path><path d="M 179.922 82.552 C 142.631 89.305, 111.271 112.380, 94.297 145.557 C 64.081 204.616, 86.943 275.719, 145.835 305.846 C 180.387 323.522, 219.717 323.470, 254.443 305.703 C 306.184 279.232, 330.922 219.707, 313.406 163.829 C 307.756 145.802, 297.927 129.793, 284.042 116 C 265.812 97.890, 244.575 86.901, 219.290 82.491 C 208.848 80.670, 190.153 80.699, 179.922 82.552 M 244.185 135.684 C 243.462 135.973, 242.494 137.200, 242.034 138.410 C 241.375 140.143, 234.897 143.221, 211.507 152.913 C 189.782 161.915, 181.519 164.919, 180.708 164.108 C 180.018 163.418, 174.986 163, 167.371 163 C 154.768 163, 152 163.823, 152 167.571 C 152 168.567, 150.810 169, 148.073 169 C 145.021 169, 143.683 169.587, 142.073 171.635 C 140.256 173.944, 140 175.653, 140 185.461 C 140 195.865, 140.163 196.804, 142.314 198.826 C 143.800 200.222, 145.910 201, 148.206 201 C 151.162 201, 151.889 201.423, 152.394 203.433 C 152.730 204.772, 153.904 206.152, 155.002 206.501 C 156.881 207.097, 157 208.019, 157 221.952 C 157 236.654, 156.980 236.783, 154.500 238.408 C 151.791 240.183, 151.134 244.514, 153.035 248.066 C 153.976 249.825, 155.240 250, 166.964 250 C 177.352 250, 180.163 249.695, 181.429 248.429 C 183.839 246.019, 183.390 241.266, 180.500 238.588 C 178.254 236.506, 178 235.495, 178 228.635 L 178 221 180.777 221 C 185.799 221, 188 218.525, 188 212.876 C 188 207.043, 186.995 207.032, 201.290 213.014 L 210.500 216.868 211.247 221.967 C 212.242 228.770, 215.072 234.050, 219.966 238.238 L 224 241.692 224 251.264 C 224 256.529, 224.273 261.548, 224.607 262.418 C 225.470 264.668, 228.972 264.375, 231.686 261.826 L 234 259.651 236.411 261.916 C 237.737 263.162, 239.649 264.023, 240.661 263.830 C 242.279 263.520, 242.560 262.134, 243 252.307 L 243.500 241.137 247.741 238.068 C 250.114 236.352, 253.240 235, 254.836 235 C 261.136 235, 261 236.105, 261 184.826 C 261 131.168, 261.727 134.942, 251.421 135.079 C 248.165 135.122, 244.908 135.395, 244.185 135.684 M 245.710 138.623 C 245.320 139.014, 245 153.349, 245 170.479 L 245 201.624 247.908 203.774 C 249.507 204.956, 252.037 208.421, 253.531 211.473 C 255.788 216.087, 256.155 217.906, 255.706 222.261 C 255.409 225.143, 254.840 228.558, 254.440 229.851 C 253.837 231.805, 254.034 232.140, 255.607 231.837 C 257.432 231.486, 257.500 229.802, 257.500 184.986 L 257.500 138.500 251.960 138.206 C 248.913 138.045, 246.101 138.232, 245.710 138.623 M 235 146.358 L 229.500 148.622 229.233 173.811 L 228.966 199 233.901 199 C 236.616 199, 239.548 199.273, 240.418 199.607 C 241.837 200.152, 242 197.326, 242 172.107 C 242 156.648, 241.662 144.021, 241.250 144.047 C 240.838 144.072, 238.025 145.112, 235 146.358 M 204.500 159.047 L 183.500 167.790 183.500 185.072 L 183.500 202.354 197.500 208.144 C 205.200 211.329, 211.838 213.949, 212.250 213.967 C 212.662 213.985, 213 213.324, 213 212.497 C 213 210.934, 221.168 202.248, 224.281 200.500 C 225.926 199.576, 226.041 197.621, 225.781 174.902 L 225.500 150.304 204.500 159.047 M 155.485 167.250 C 155.237 167.938, 155.138 176.375, 155.267 186 L 155.500 203.500 167.250 203.782 L 179 204.063 179 185.032 L 179 166 167.469 166 C 159.151 166, 155.811 166.348, 155.485 167.250 M 144.200 173.200 C 143.418 173.982, 143 178.089, 143 185 C 143 196.759, 143.544 198, 148.700 198 L 152 198 152 185 L 152 172 148.700 172 C 146.885 172, 144.860 172.540, 144.200 173.200 M 225.384 203.913 C 217.524 207.483, 212.879 217.076, 215.054 225.250 C 219.797 243.080, 243.399 245.207, 251.110 228.500 C 253.456 223.418, 253.454 218.575, 251.104 213.500 C 246.348 203.228, 235.663 199.245, 225.384 203.913 M 180.250 206.291 C 178.324 207.160, 178 208.075, 178 212.653 C 178 217.257, 178.266 218, 179.918 218 C 184.200 218, 185 216.977, 185 211.500 C 185 205.758, 183.960 204.617, 180.250 206.291 M 225.371 207.435 C 208.669 217.686, 222.377 243.120, 240.326 235.180 C 248.195 231.699, 251.606 223.493, 248.530 215.440 C 244.938 206.034, 233.881 202.212, 225.371 207.435 M 160 222.500 L 160 238 167.500 238 L 175 238 175 222.500 L 175 207 167.500 207 L 160 207 160 222.500 M 227.304 209.956 C 222.285 213.017, 220.671 216.229, 221.231 222.049 C 222.595 236.247, 240.862 238.113, 245.978 224.576 C 248.079 219.016, 245.178 212.262, 239.540 209.586 C 235.087 207.473, 231.183 207.591, 227.304 209.956 M 230.447 213.440 C 229.568 214.783, 227.870 216.020, 226.674 216.190 C 224.246 216.536, 223.106 220.506, 224.915 222.315 C 225.512 222.912, 226 224.638, 226 226.150 C 226 229.521, 228.493 231.143, 231.763 229.900 C 233.267 229.328, 234.860 229.390, 236.129 230.069 C 238.741 231.467, 241 229.675, 241 226.206 C 241 224.804, 241.769 222.808, 242.708 221.770 C 244.682 219.589, 243.542 216.747, 240.450 216.140 C 239.440 215.941, 237.768 214.704, 236.734 213.390 C 234.341 210.347, 232.464 210.362, 230.447 213.440 M 231.732 217 C 230.790 218.100, 229.330 219, 228.487 219 C 227.113 219, 227.115 219.245, 228.500 221.359 C 229.350 222.657, 229.791 224.382, 229.480 225.192 C 229.032 226.358, 229.865 226.667, 233.457 226.667 C 237.337 226.667, 238 226.374, 238 224.662 C 238 223.560, 238.745 221.835, 239.655 220.829 C 241.209 219.111, 241.180 219, 239.163 219 C 237.983 219, 236.455 218.100, 235.768 217 C 235.081 215.900, 234.277 215, 233.982 215 C 233.686 215, 232.674 215.900, 231.732 217 M 155.184 243.750 L 155.500 246.500 167.250 246.782 L 179 247.063 179 244.032 L 179 241 166.934 241 L 154.867 241 155.184 243.750 M 233.250 242.740 L 227 243.095 227 252.235 L 227 261.374 229.805 258.687 C 231.347 257.209, 233.010 256, 233.500 256 C 233.990 256, 235.653 257.209, 237.195 258.687 L 240 261.374 240 251.687 C 240 246.359, 239.887 242.087, 239.750 242.193 C 239.613 242.299, 236.688 242.545, 233.250 242.740" stroke="none" fill="#f38c2c" fill-rule="evenodd"></path></svg>