<svg xmlns="http://www.w3.org/2000/svg" width="400" height="400" viewBox="0 0 400 400"><path d="M 185.571 120.571 C 184.707 121.436, 184 123.236, 184 124.571 L 184 127 171.582 127 C 164.752 127, 158.452 127.273, 157.582 127.607 C 156.178 128.146, 156 132.511, 156 166.500 C 156 200.489, 156.178 204.854, 157.582 205.393 C 158.452 205.727, 164.752 206, 171.582 206 L 184 206 184 208.429 C 184 211.535, 186.465 214, 189.571 214 C 191.927 214, 192 214.225, 192 221.500 L 192 229 187.135 229 C 183.820 229, 181.477 229.623, 179.782 230.957 C 177.344 232.875, 177.294 233.196, 177.273 247.001 C 177.247 264.094, 177.712 265.063, 186.292 265.774 L 191.917 266.241 192.209 273.370 L 192.500 280.500 200 280.500 L 207.500 280.500 207.794 273.250 L 208.088 266 213.110 266 C 215.872 266, 219.114 265.451, 220.316 264.781 C 221.517 264.110, 224.975 263.323, 228 263.031 L 233.500 262.500 233.500 247.500 L 233.500 232.500 228.500 231.969 C 225.344 231.633, 221.934 230.386, 219.252 228.587 C 215.881 226.325, 214.283 225.855, 211.502 226.306 L 208 226.874 208 220.437 C 208 214.598, 208.192 214, 210.066 214 C 213.780 214, 216 212.116, 216 208.965 L 216 206 228.418 206 C 235.248 206, 241.548 205.727, 242.418 205.393 C 243.822 204.854, 244 200.489, 244 166.500 C 244 132.511, 243.822 128.146, 242.418 127.607 C 241.548 127.273, 235.248 127, 228.418 127 L 216 127 216 124.035 C 216 122.127, 215.310 120.701, 214.066 120.035 C 213.002 119.466, 206.509 119, 199.637 119 C 189.612 119, 186.832 119.311, 185.571 120.571 M 190 126 C 190 126.600, 194 127, 200 127 C 206 127, 210 126.600, 210 126 C 210 125.400, 206 125, 200 125 C 194 125, 190 125.400, 190 126 M 161 166.500 L 161 200 200 200 L 239 200 239 166.500 L 239 133 200 133 L 161 133 161 166.500 M 181.496 146.004 L 176.567 151.009 182.789 157.287 L 189.011 163.565 183.930 168.532 C 176.057 176.230, 176.022 176.438, 181.615 182.117 C 184.260 184.802, 186.870 187, 187.413 187 C 187.957 187, 191.069 184.257, 194.329 180.905 L 200.255 174.811 206.623 181.122 L 212.991 187.433 217.996 182.504 C 220.748 179.793, 223 177.094, 223 176.506 C 223 175.918, 220.299 172.765, 216.998 169.498 L 210.996 163.558 217.164 157.334 L 223.333 151.111 219.500 146.805 C 213.271 139.808, 212.772 139.798, 205.954 146.545 L 200 152.437 194.221 146.719 C 191.043 143.573, 187.988 141, 187.433 141 C 186.879 141, 184.207 143.252, 181.496 146.004 M 184.956 149.553 C 183.857 150.878, 184.500 151.947, 189.334 156.832 C 192.450 159.981, 195 163.207, 195 164 C 195 164.793, 192.428 168.042, 189.283 171.219 C 183.879 176.680, 183.661 177.089, 185.286 178.714 C 186.911 180.339, 187.320 180.121, 192.781 174.717 C 195.958 171.572, 199.207 169, 200 169 C 200.793 169, 204.042 171.572, 207.219 174.717 C 212.680 180.121, 213.089 180.339, 214.714 178.714 C 216.339 177.089, 216.121 176.680, 210.717 171.219 C 207.572 168.042, 205 164.793, 205 164 C 205 163.207, 207.572 159.958, 210.717 156.781 C 216.121 151.320, 216.339 150.911, 214.714 149.286 C 213.089 147.661, 212.680 147.879, 207.219 153.283 C 204.042 156.428, 200.765 159, 199.937 159 C 199.109 159, 195.987 156.525, 193 153.500 C 190.013 150.475, 187.271 148, 186.907 148 C 186.543 148, 185.665 148.699, 184.956 149.553 M 190 207 C 190 207.600, 194 208, 200 208 C 206 208, 210 207.600, 210 207 C 210 206.400, 206 206, 200 206 C 194 206, 190 206.400, 190 207 M 198 221.500 C 198 228.833, 198.056 229, 200.500 229 C 202.944 229, 203 228.833, 203 221.500 C 203 214.167, 202.944 214, 200.500 214 C 198.056 214, 198 214.167, 198 221.500 M 208.415 233.362 C 208.127 234.111, 208.029 237.374, 208.196 240.612 C 208.460 245.732, 208.761 246.500, 210.500 246.500 C 212.229 246.500, 212.540 245.734, 212.797 240.839 C 213.006 236.859, 213.553 235.002, 214.637 234.586 C 217.298 233.565, 218 234.930, 218 241.125 C 218 248.250, 217.074 250.313, 213.141 251.942 C 210.721 252.944, 209.676 252.884, 207.193 251.600 C 205.536 250.743, 203.990 249.471, 203.758 248.774 C 203.494 247.983, 202.864 248.386, 202.084 249.843 C 201.109 251.665, 201.093 252.811, 202.013 255.030 C 202.662 256.597, 202.877 258.390, 202.492 259.013 C 201.703 260.289, 216.084 259.846, 224 258.350 L 228.500 257.500 228.785 247.250 L 229.070 237 225.729 237 C 223.736 237, 221.022 235.992, 219 234.500 C 215.282 231.757, 209.278 231.112, 208.415 233.362 M 183.250 234.641 C 182.563 234.930, 182 236.029, 182 237.083 C 182 238.803, 182.776 239, 189.570 239 C 196.847 239, 197.127 238.913, 196.820 236.750 C 196.532 234.728, 195.892 234.480, 190.500 234.307 C 187.200 234.201, 183.938 234.351, 183.250 234.641 M 201.446 241.087 C 201.077 241.685, 201.275 242.675, 201.887 243.287 C 202.704 244.104, 203 243.815, 203 242.200 C 203 239.785, 202.481 239.413, 201.446 241.087 M 182.336 246.567 C 181.315 249.229, 183.444 250.115, 190.102 249.802 C 195.868 249.530, 196.532 249.278, 196.820 247.250 C 197.125 245.098, 196.830 245, 190.038 245 C 184.513 245, 182.804 245.348, 182.336 246.567 M 182.398 256.406 C 181.332 259.184, 183.087 260, 190.129 260 C 196.827 260, 197.125 259.900, 196.820 257.750 C 196.529 255.705, 195.884 255.473, 189.736 255.204 C 184.456 254.973, 182.846 255.237, 182.398 256.406 M 198 271 C 198 275.667, 198.167 276, 200.500 276 C 202.833 276, 203 275.667, 203 271 C 203 266.333, 202.833 266, 200.500 266 C 198.167 266, 198 266.333, 198 271" stroke="none" fill="#f4f1fa" fill-rule="evenodd"></path><path d="M 179.500 82.409 C 154.278 87.280, 133.588 98.162, 115.875 115.875 C 100.362 131.389, 90.102 149.243, 84.200 171 C 81.843 179.687, 81.622 182.168, 81.622 200 C 81.622 217.832, 81.843 220.313, 84.200 229 C 90.314 251.539, 100.398 268.803, 116.908 285 C 133.526 301.303, 153.090 311.971, 175 316.675 C 186.875 319.225, 213.125 319.225, 225 316.675 C 246.910 311.971, 266.474 301.303, 283.092 285 C 299.602 268.803, 309.686 251.539, 315.800 229 C 318.157 220.313, 318.378 217.832, 318.378 200 C 318.378 182.168, 318.157 179.687, 315.800 171 C 309.898 149.243, 299.638 131.389, 284.125 115.875 C 268.542 100.292, 250.940 90.196, 229.191 84.364 C 221.044 82.180, 216.871 81.710, 203 81.412 C 191.873 81.173, 184.221 81.498, 179.500 82.409 M 185.571 120.571 C 184.707 121.436, 184 123.236, 184 124.571 L 184 127 171.582 127 C 164.752 127, 158.452 127.273, 157.582 127.607 C 156.178 128.146, 156 132.511, 156 166.500 C 156 200.489, 156.178 204.854, 157.582 205.393 C 158.452 205.727, 164.752 206, 171.582 206 L 184 206 184 208.429 C 184 211.535, 186.465 214, 189.571 214 C 191.927 214, 192 214.225, 192 221.500 L 192 229 187.135 229 C 183.820 229, 181.477 229.623, 179.782 230.957 C 177.344 232.875, 177.294 233.196, 177.273 247.001 C 177.247 264.094, 177.712 265.063, 186.292 265.774 L 191.917 266.241 192.209 273.370 L 192.500 280.500 200 280.500 L 207.500 280.500 207.794 273.250 L 208.088 266 213.110 266 C 215.872 266, 219.114 265.451, 220.316 264.781 C 221.517 264.110, 224.975 263.323, 228 263.031 L 233.500 262.500 233.500 247.500 L 233.500 232.500 228.500 231.969 C 225.344 231.633, 221.934 230.386, 219.252 228.587 C 215.881 226.325, 214.283 225.855, 211.502 226.306 L 208 226.874 208 220.437 C 208 214.598, 208.192 214, 210.066 214 C 213.780 214, 216 212.116, 216 208.965 L 216 206 228.418 206 C 235.248 206, 241.548 205.727, 242.418 205.393 C 243.822 204.854, 244 200.489, 244 166.500 C 244 132.511, 243.822 128.146, 242.418 127.607 C 241.548 127.273, 235.248 127, 228.418 127 L 216 127 216 124.035 C 216 122.127, 215.310 120.701, 214.066 120.035 C 213.002 119.466, 206.509 119, 199.637 119 C 189.612 119, 186.832 119.311, 185.571 120.571 M 190 126 C 190 126.600, 194 127, 200 127 C 206 127, 210 126.600, 210 126 C 210 125.400, 206 125, 200 125 C 194 125, 190 125.400, 190 126 M 161 166.500 L 161 200 200 200 L 239 200 239 166.500 L 239 133 200 133 L 161 133 161 166.500 M 181.496 146.004 L 176.567 151.009 182.789 157.287 L 189.011 163.565 183.930 168.532 C 176.057 176.230, 176.022 176.438, 181.615 182.117 C 184.260 184.802, 186.870 187, 187.413 187 C 187.957 187, 191.069 184.257, 194.329 180.905 L 200.255 174.811 206.623 181.122 L 212.991 187.433 217.996 182.504 C 220.748 179.793, 223 177.094, 223 176.506 C 223 175.918, 220.299 172.765, 216.998 169.498 L 210.996 163.558 217.164 157.334 L 223.333 151.111 219.500 146.805 C 213.271 139.808, 212.772 139.798, 205.954 146.545 L 200 152.437 194.221 146.719 C 191.043 143.573, 187.988 141, 187.433 141 C 186.879 141, 184.207 143.252, 181.496 146.004 M 184.956 149.553 C 183.857 150.878, 184.500 151.947, 189.334 156.832 C 192.450 159.981, 195 163.207, 195 164 C 195 164.793, 192.428 168.042, 189.283 171.219 C 183.879 176.680, 183.661 177.089, 185.286 178.714 C 186.911 180.339, 187.320 180.121, 192.781 174.717 C 195.958 171.572, 199.207 169, 200 169 C 200.793 169, 204.042 171.572, 207.219 174.717 C 212.680 180.121, 213.089 180.339, 214.714 178.714 C 216.339 177.089, 216.121 176.680, 210.717 171.219 C 207.572 168.042, 205 164.793, 205 164 C 205 163.207, 207.572 159.958, 210.717 156.781 C 216.121 151.320, 216.339 150.911, 214.714 149.286 C 213.089 147.661, 212.680 147.879, 207.219 153.283 C 204.042 156.428, 200.765 159, 199.937 159 C 199.109 159, 195.987 156.525, 193 153.500 C 190.013 150.475, 187.271 148, 186.907 148 C 186.543 148, 185.665 148.699, 184.956 149.553 M 190 207 C 190 207.600, 194 208, 200 208 C 206 208, 210 207.600, 210 207 C 210 206.400, 206 206, 200 206 C 194 206, 190 206.400, 190 207 M 198 221.500 C 198 228.833, 198.056 229, 200.500 229 C 202.944 229, 203 228.833, 203 221.500 C 203 214.167, 202.944 214, 200.500 214 C 198.056 214, 198 214.167, 198 221.500 M 208.415 233.362 C 208.127 234.111, 208.029 237.374, 208.196 240.612 C 208.460 245.732, 208.761 246.500, 210.500 246.500 C 212.229 246.500, 212.540 245.734, 212.797 240.839 C 213.006 236.859, 213.553 235.002, 214.637 234.586 C 217.298 233.565, 218 234.930, 218 241.125 C 218 248.250, 217.074 250.313, 213.141 251.942 C 210.721 252.944, 209.676 252.884, 207.193 251.600 C 205.536 250.743, 203.990 249.471, 203.758 248.774 C 203.494 247.983, 202.864 248.386, 202.084 249.843 C 201.109 251.665, 201.093 252.811, 202.013 255.030 C 202.662 256.597, 202.877 258.390, 202.492 259.013 C 201.703 260.289, 216.084 259.846, 224 258.350 L 228.500 257.500 228.785 247.250 L 229.070 237 225.729 237 C 223.736 237, 221.022 235.992, 219 234.500 C 215.282 231.757, 209.278 231.112, 208.415 233.362 M 183.250 234.641 C 182.563 234.930, 182 236.029, 182 237.083 C 182 238.803, 182.776 239, 189.570 239 C 196.847 239, 197.127 238.913, 196.820 236.750 C 196.532 234.728, 195.892 234.480, 190.500 234.307 C 187.200 234.201, 183.938 234.351, 183.250 234.641 M 201.446 241.087 C 201.077 241.685, 201.275 242.675, 201.887 243.287 C 202.704 244.104, 203 243.815, 203 242.200 C 203 239.785, 202.481 239.413, 201.446 241.087 M 182.336 246.567 C 181.315 249.229, 183.444 250.115, 190.102 249.802 C 195.868 249.530, 196.532 249.278, 196.820 247.250 C 197.125 245.098, 196.830 245, 190.038 245 C 184.513 245, 182.804 245.348, 182.336 246.567 M 182.398 256.406 C 181.332 259.184, 183.087 260, 190.129 260 C 196.827 260, 197.125 259.900, 196.820 257.750 C 196.529 255.705, 195.884 255.473, 189.736 255.204 C 184.456 254.973, 182.846 255.237, 182.398 256.406 M 198 271 C 198 275.667, 198.167 276, 200.500 276 C 202.833 276, 203 275.667, 203 271 C 203 266.333, 202.833 266, 200.500 266 C 198.167 266, 198 266.333, 198 271" stroke="none" fill="#5c24e3" fill-rule="evenodd"></path></svg>