<svg xmlns="http://www.w3.org/2000/svg" width="400" height="400" viewBox="0 0 400 400"><path d="M 160.923 135.923 L 158 138.846 158 199.867 L 158 260.888 160.412 263.694 L 162.824 266.500 193.818 266.803 C 233.848 267.194, 234 267.140, 234 252.448 L 234 246.025 198.250 245.763 L 162.500 245.500 162.240 199.750 L 161.980 154 195.490 154 L 229 154 229 170.500 L 229 187 231.500 187 L 234 187 234 162.923 L 234 138.846 231.077 135.923 L 228.154 133 196 133 L 163.846 133 160.923 135.923 M 163.592 138.898 C 162.389 140.228, 161.969 142.098, 162.188 145.148 L 162.500 149.500 195.750 149.763 L 229 150.027 229 144.713 C 229 141.791, 228.460 138.860, 227.800 138.200 C 226.919 137.319, 218.457 137, 195.955 137 C 167.130 137, 165.208 137.113, 163.592 138.898 M 186.120 142.355 C 185.249 143.405, 185.305 144.008, 186.355 144.880 C 187.405 145.751, 188.008 145.695, 188.880 144.645 C 189.751 143.595, 189.695 142.992, 188.645 142.120 C 187.595 141.249, 186.992 141.305, 186.120 142.355 M 194.688 141.646 C 193.272 143.061, 194.073 145, 196.073 145 C 197.471 145, 198.041 144.457, 197.823 143.333 C 197.466 141.492, 195.759 140.574, 194.688 141.646 M 203.074 141.954 C 201.496 142.930, 202.505 145, 204.559 145 C 206.079 145, 206.562 142.465, 205.202 141.625 C 204.763 141.354, 203.806 141.502, 203.074 141.954 M 194.455 160.455 C 192.177 162.732, 192 163.627, 192 172.882 C 192 182.465, 192.103 182.936, 194.635 184.927 C 196.877 186.691, 198.674 187, 206.680 187 C 215.338 187, 216.287 186.804, 218.545 184.545 C 220.810 182.281, 221 181.350, 221 172.500 C 221 163.650, 220.810 162.719, 218.545 160.455 C 216.281 158.190, 215.350 158, 206.500 158 C 197.650 158, 196.719 158.190, 194.455 160.455 M 197.750 163.080 C 196.307 163.921, 196 165.547, 196 172.350 C 196 177.433, 196.461 181.061, 197.200 181.800 C 197.936 182.536, 201.533 183, 206.500 183 C 211.467 183, 215.064 182.536, 215.800 181.800 C 217.676 179.924, 217.382 165.525, 215.429 163.571 C 213.601 161.744, 200.662 161.384, 197.750 163.080 M 168.861 192.914 C 166.790 194.593, 166.500 195.679, 166.503 201.764 C 166.507 211.243, 167.283 212, 177 212 C 186.721 212, 187.500 211.240, 187.500 201.758 C 187.500 195.677, 187.210 194.588, 185.139 192.912 C 181.839 190.240, 172.158 190.241, 168.861 192.914 M 195.146 193.531 L 192 196.178 192 216.415 L 192 236.651 194.581 239.076 C 197.134 241.475, 197.370 241.500, 217.167 241.500 L 237.173 241.500 239.587 238.694 C 241.958 235.937, 242 235.554, 242 216.500 C 242 197.451, 241.958 197.062, 239.589 194.306 L 237.177 191.500 217.734 191.192 L 198.291 190.884 195.146 193.531 M 171 202 L 171 208 177 208 L 183 208 183 202 L 183 196 177 196 L 171 196 171 202 M 197.200 197.200 C 196.355 198.045, 196 203.756, 196 216.500 C 196 229.244, 196.355 234.955, 197.200 235.800 C 198.892 237.492, 235.108 237.492, 236.800 235.800 C 238.490 234.110, 238.490 198.890, 236.800 197.200 C 235.953 196.353, 230.133 196, 217 196 C 203.867 196, 198.047 196.353, 197.200 197.200 M 224.424 209.888 C 221.166 212.070, 216.966 215.445, 215.092 217.389 L 211.683 220.922 207.757 216.461 C 204.096 212.303, 200 210.543, 200 213.129 C 200 213.750, 201.463 215.916, 203.250 217.944 C 205.037 219.971, 207.450 222.951, 208.610 224.565 L 210.720 227.500 217.714 220.906 C 221.561 217.279, 226.686 213.220, 229.104 211.886 C 233.526 209.446, 234.851 206.787, 231.924 206.224 C 231.057 206.057, 227.682 207.706, 224.424 209.888 M 162 254.309 C 162 262.413, 160.391 262.065, 196.500 261.765 L 228.500 261.500 228.800 255.750 L 229.100 250 195.550 250 L 162 250 162 254.309 M 185.676 255.402 C 184.786 257.721, 185.912 258, 196.167 258 C 205.333 258, 206 257.864, 206 256 C 206 254.135, 205.333 254, 196.107 254 C 188.542 254, 186.087 254.330, 185.676 255.402" stroke="none" fill="#fcf8f5" fill-rule="evenodd"></path><path d="M 179.922 82.552 C 142.631 89.305, 111.271 112.380, 94.297 145.557 C 64.081 204.616, 86.943 275.719, 145.835 305.846 C 180.387 323.522, 219.717 323.470, 254.443 305.703 C 306.184 279.232, 330.922 219.707, 313.406 163.829 C 307.756 145.802, 297.927 129.793, 284.042 116 C 265.812 97.890, 244.575 86.901, 219.290 82.491 C 208.848 80.670, 190.153 80.699, 179.922 82.552 M 160.923 135.923 L 158 138.846 158 199.867 L 158 260.888 160.412 263.694 L 162.824 266.500 193.818 266.803 C 233.848 267.194, 234 267.140, 234 252.448 L 234 246.025 198.250 245.763 L 162.500 245.500 162.240 199.750 L 161.980 154 195.490 154 L 229 154 229 170.500 L 229 187 231.500 187 L 234 187 234 162.923 L 234 138.846 231.077 135.923 L 228.154 133 196 133 L 163.846 133 160.923 135.923 M 163.592 138.898 C 162.389 140.228, 161.969 142.098, 162.188 145.148 L 162.500 149.500 195.750 149.763 L 229 150.027 229 144.713 C 229 141.791, 228.460 138.860, 227.800 138.200 C 226.919 137.319, 218.457 137, 195.955 137 C 167.130 137, 165.208 137.113, 163.592 138.898 M 186.120 142.355 C 185.249 143.405, 185.305 144.008, 186.355 144.880 C 187.405 145.751, 188.008 145.695, 188.880 144.645 C 189.751 143.595, 189.695 142.992, 188.645 142.120 C 187.595 141.249, 186.992 141.305, 186.120 142.355 M 194.688 141.646 C 193.272 143.061, 194.073 145, 196.073 145 C 197.471 145, 198.041 144.457, 197.823 143.333 C 197.466 141.492, 195.759 140.574, 194.688 141.646 M 203.074 141.954 C 201.496 142.930, 202.505 145, 204.559 145 C 206.079 145, 206.562 142.465, 205.202 141.625 C 204.763 141.354, 203.806 141.502, 203.074 141.954 M 194.455 160.455 C 192.177 162.732, 192 163.627, 192 172.882 C 192 182.465, 192.103 182.936, 194.635 184.927 C 196.877 186.691, 198.674 187, 206.680 187 C 215.338 187, 216.287 186.804, 218.545 184.545 C 220.810 182.281, 221 181.350, 221 172.500 C 221 163.650, 220.810 162.719, 218.545 160.455 C 216.281 158.190, 215.350 158, 206.500 158 C 197.650 158, 196.719 158.190, 194.455 160.455 M 197.750 163.080 C 196.307 163.921, 196 165.547, 196 172.350 C 196 177.433, 196.461 181.061, 197.200 181.800 C 197.936 182.536, 201.533 183, 206.500 183 C 211.467 183, 215.064 182.536, 215.800 181.800 C 217.676 179.924, 217.382 165.525, 215.429 163.571 C 213.601 161.744, 200.662 161.384, 197.750 163.080 M 168.861 192.914 C 166.790 194.593, 166.500 195.679, 166.503 201.764 C 166.507 211.243, 167.283 212, 177 212 C 186.721 212, 187.500 211.240, 187.500 201.758 C 187.500 195.677, 187.210 194.588, 185.139 192.912 C 181.839 190.240, 172.158 190.241, 168.861 192.914 M 195.146 193.531 L 192 196.178 192 216.415 L 192 236.651 194.581 239.076 C 197.134 241.475, 197.370 241.500, 217.167 241.500 L 237.173 241.500 239.587 238.694 C 241.958 235.937, 242 235.554, 242 216.500 C 242 197.451, 241.958 197.062, 239.589 194.306 L 237.177 191.500 217.734 191.192 L 198.291 190.884 195.146 193.531 M 171 202 L 171 208 177 208 L 183 208 183 202 L 183 196 177 196 L 171 196 171 202 M 197.200 197.200 C 196.355 198.045, 196 203.756, 196 216.500 C 196 229.244, 196.355 234.955, 197.200 235.800 C 198.892 237.492, 235.108 237.492, 236.800 235.800 C 238.490 234.110, 238.490 198.890, 236.800 197.200 C 235.953 196.353, 230.133 196, 217 196 C 203.867 196, 198.047 196.353, 197.200 197.200 M 224.424 209.888 C 221.166 212.070, 216.966 215.445, 215.092 217.389 L 211.683 220.922 207.757 216.461 C 204.096 212.303, 200 210.543, 200 213.129 C 200 213.750, 201.463 215.916, 203.250 217.944 C 205.037 219.971, 207.450 222.951, 208.610 224.565 L 210.720 227.500 217.714 220.906 C 221.561 217.279, 226.686 213.220, 229.104 211.886 C 233.526 209.446, 234.851 206.787, 231.924 206.224 C 231.057 206.057, 227.682 207.706, 224.424 209.888 M 162 254.309 C 162 262.413, 160.391 262.065, 196.500 261.765 L 228.500 261.500 228.800 255.750 L 229.100 250 195.550 250 L 162 250 162 254.309 M 185.676 255.402 C 184.786 257.721, 185.912 258, 196.167 258 C 205.333 258, 206 257.864, 206 256 C 206 254.135, 205.333 254, 196.107 254 C 188.542 254, 186.087 254.330, 185.676 255.402" stroke="none" fill="#f38c2c" fill-rule="evenodd"></path></svg>