<svg xmlns="http://www.w3.org/2000/svg" width="400" height="400" viewBox="0 0 400 400"><path d="M 208.476 135.129 C 204.023 139.233, 203.962 139.254, 198.149 138.596 C 190.431 137.723, 188.310 139.357, 187.242 146.999 C 186.519 152.164, 186.231 152.609, 182.486 154.352 C 174.494 158.072, 173.366 160.878, 177 168 C 179.495 172.891, 179.495 174.139, 177.004 178.226 C 173.148 184.550, 174.738 188.711, 182.142 191.673 C 186.062 193.242, 186.261 193.595, 187.462 201.113 C 188.386 206.895, 190.762 208.340, 197.972 207.503 L 204.056 206.797 208.506 210.899 C 210.953 213.154, 213.875 215, 215 215 C 216.125 215, 219.047 213.154, 221.494 210.899 L 225.944 206.797 232.028 207.503 C 239.238 208.340, 241.614 206.895, 242.538 201.113 C 243.693 193.881, 244.009 193.239, 247.028 191.988 C 254.966 188.700, 256.885 184.366, 253 178.500 C 250.533 174.775, 250.492 172.350, 252.828 168.500 C 256.971 161.675, 255.707 157.975, 248.051 154.523 C 243.940 152.669, 243.720 152.285, 242.538 144.887 C 241.620 139.139, 239.328 137.750, 232.105 138.568 L 226.003 139.258 221.524 135.129 C 219.060 132.858, 216.125 131, 215 131 C 213.875 131, 210.940 132.858, 208.476 135.129 M 209.203 140.105 C 205.145 143.934, 204.672 144.118, 200.703 143.416 C 192.896 142.034, 192.591 142.138, 191.687 146.500 C 189.956 154.851, 189.589 155.445, 184.564 158.029 C 181.860 159.420, 179.464 161.107, 179.241 161.777 C 179.017 162.448, 179.772 164.513, 180.917 166.366 C 183.558 170.639, 183.565 175.561, 180.936 179.873 C 179.805 181.728, 179.105 183.830, 179.379 184.545 C 179.653 185.260, 182.043 186.925, 184.689 188.244 C 189.602 190.694, 189.997 191.330, 191.683 199.500 C 192.583 203.862, 191.819 203.620, 202.246 202.851 C 205.502 202.611, 206.581 203.154, 210.496 206.996 L 215 211.416 219.400 207.099 L 223.799 202.781 230.649 203.140 L 237.499 203.500 238.366 199.500 C 240.056 191.702, 240.947 190.367, 246.063 187.971 C 248.778 186.699, 250.998 185.173, 250.996 184.579 C 250.994 183.986, 249.903 181.353, 248.571 178.730 C 245.978 173.618, 246.188 170.425, 249.421 165.809 C 251.868 162.316, 251.391 161.337, 245.768 158.313 C 240.377 155.415, 239.644 154.242, 238.462 146.619 L 237.860 142.738 231.437 143.396 L 225.014 144.054 220.645 140.027 C 218.242 137.812, 215.652 136.011, 214.888 136.025 C 214.125 136.039, 211.566 137.875, 209.203 140.105 M 206.222 145.409 C 194.619 149.196, 187.034 159.142, 186.218 171.639 C 185.820 177.723, 186.115 179.569, 188.216 184.139 C 191.547 191.385, 194.827 195.034, 201.167 198.546 C 205.901 201.168, 207.455 201.500, 215 201.500 C 222.545 201.500, 224.099 201.168, 228.833 198.546 C 235.173 195.034, 238.453 191.385, 241.784 184.139 C 243.885 179.569, 244.180 177.723, 243.782 171.639 C 243.042 160.308, 237.357 151.772, 227.313 146.909 C 221.748 144.215, 212.003 143.522, 206.222 145.409 M 205.422 150.418 C 200.889 152.392, 195.156 157.774, 192.922 162.152 C 186.942 173.875, 191.424 188.059, 203.152 194.524 C 220.341 203.999, 241.945 190.070, 239.683 170.970 C 238.630 162.078, 232.431 153.749, 224.355 150.375 C 220.193 148.636, 209.459 148.661, 205.422 150.418 M 219.009 170.491 L 209.557 179.982 205.372 175.874 C 201.471 172.046, 199 171.454, 199 174.347 C 199 175.794, 208.119 185, 209.552 185 C 210.093 185, 215.204 180.316, 220.910 174.591 C 228.156 167.320, 231.100 163.702, 230.673 162.591 C 230.337 161.716, 229.702 161, 229.262 161 C 228.821 161, 224.207 165.271, 219.009 170.491 M 133 200 C 133 201.843, 133.667 202, 141.500 202 L 150 202 150 229 L 150 256 141.500 256 C 133.667 256, 133 256.157, 133 258 C 133 259.857, 133.667 260, 142.300 260 C 152.670 260, 154 259.352, 154 254.300 C 154 252.460, 154.514 251, 155.162 251 C 155.801 251, 167.568 255.065, 181.311 260.034 C 199.980 266.783, 206.882 268.869, 208.606 268.284 C 212.180 267.070, 263.981 223.938, 265.581 220.844 C 268.869 214.485, 265.816 206.924, 259.154 204.928 C 253.794 203.322, 251.929 204.372, 236.583 217.635 C 225.220 227.455, 222.447 230.922, 224.794 232.372 C 225.230 232.642, 231.193 228.108, 238.044 222.296 C 244.895 216.484, 251.509 211.065, 252.743 210.254 C 257.413 207.183, 263.811 211.922, 262.429 217.429 C 261.959 219.301, 254.454 226.119, 236.633 240.867 C 222.810 252.306, 210.375 262.374, 209 263.240 C 206.607 264.748, 205.426 264.429, 181.500 255.826 C 167.750 250.881, 155.938 246.662, 155.250 246.449 C 154.316 246.161, 154 241.888, 154 229.552 L 154 213.041 158.070 210.964 L 162.141 208.888 185.820 217 C 198.844 221.461, 210.533 225.785, 211.796 226.609 C 217.031 230.023, 216.819 237.153, 211.397 240.055 C 209.220 241.220, 207.650 240.982, 198.213 238.058 C 182.831 233.292, 180.250 232.690, 178.345 233.421 C 176.875 233.985, 176.838 234.261, 178.072 235.454 C 180 237.317, 204.745 245, 208.819 245 C 215.151 245, 220 239.550, 220 232.432 C 220 229.517, 219.230 228.007, 216.250 225.073 C 212.959 221.833, 209.526 220.365, 188.214 213.082 C 164.310 204.914, 162.514 204.546, 156.250 206.523 C 154.217 207.165, 154 206.904, 154 203.817 C 154 198.639, 152.715 198, 142.300 198 C 133.667 198, 133 198.143, 133 200" stroke="none" fill="#fcf7f4" fill-rule="evenodd"></path><path d="M 182.500 82.109 C 166.790 84.372, 147.207 92.091, 132.641 101.759 C 123.507 107.823, 107.836 123.479, 101.872 132.500 C 74.080 174.534, 74.037 225.597, 101.759 267.359 C 107.823 276.493, 123.479 292.164, 132.500 298.128 C 164.244 319.117, 200.907 324.514, 236.171 313.390 C 254.166 307.713, 270.043 297.957, 284 284 C 306.685 261.315, 318.992 231.772, 318.992 200 C 318.992 168.228, 306.685 138.685, 284 116 C 260.843 92.843, 231.216 80.732, 198.678 81.122 C 193.080 81.189, 185.800 81.633, 182.500 82.109 M 208.476 135.129 C 204.023 139.233, 203.962 139.254, 198.149 138.596 C 190.431 137.723, 188.310 139.357, 187.242 146.999 C 186.519 152.164, 186.231 152.609, 182.486 154.352 C 174.494 158.072, 173.366 160.878, 177 168 C 179.495 172.891, 179.495 174.139, 177.004 178.226 C 173.148 184.550, 174.738 188.711, 182.142 191.673 C 186.062 193.242, 186.261 193.595, 187.462 201.113 C 188.386 206.895, 190.762 208.340, 197.972 207.503 L 204.056 206.797 208.506 210.899 C 210.953 213.154, 213.875 215, 215 215 C 216.125 215, 219.047 213.154, 221.494 210.899 L 225.944 206.797 232.028 207.503 C 239.238 208.340, 241.614 206.895, 242.538 201.113 C 243.693 193.881, 244.009 193.239, 247.028 191.988 C 254.966 188.700, 256.885 184.366, 253 178.500 C 250.533 174.775, 250.492 172.350, 252.828 168.500 C 256.971 161.675, 255.707 157.975, 248.051 154.523 C 243.940 152.669, 243.720 152.285, 242.538 144.887 C 241.620 139.139, 239.328 137.750, 232.105 138.568 L 226.003 139.258 221.524 135.129 C 219.060 132.858, 216.125 131, 215 131 C 213.875 131, 210.940 132.858, 208.476 135.129 M 209.203 140.105 C 205.145 143.934, 204.672 144.118, 200.703 143.416 C 192.896 142.034, 192.591 142.138, 191.687 146.500 C 189.956 154.851, 189.589 155.445, 184.564 158.029 C 181.860 159.420, 179.464 161.107, 179.241 161.777 C 179.017 162.448, 179.772 164.513, 180.917 166.366 C 183.558 170.639, 183.565 175.561, 180.936 179.873 C 179.805 181.728, 179.105 183.830, 179.379 184.545 C 179.653 185.260, 182.043 186.925, 184.689 188.244 C 189.602 190.694, 189.997 191.330, 191.683 199.500 C 192.583 203.862, 191.819 203.620, 202.246 202.851 C 205.502 202.611, 206.581 203.154, 210.496 206.996 L 215 211.416 219.400 207.099 L 223.799 202.781 230.649 203.140 L 237.499 203.500 238.366 199.500 C 240.056 191.702, 240.947 190.367, 246.063 187.971 C 248.778 186.699, 250.998 185.173, 250.996 184.579 C 250.994 183.986, 249.903 181.353, 248.571 178.730 C 245.978 173.618, 246.188 170.425, 249.421 165.809 C 251.868 162.316, 251.391 161.337, 245.768 158.313 C 240.377 155.415, 239.644 154.242, 238.462 146.619 L 237.860 142.738 231.437 143.396 L 225.014 144.054 220.645 140.027 C 218.242 137.812, 215.652 136.011, 214.888 136.025 C 214.125 136.039, 211.566 137.875, 209.203 140.105 M 206.222 145.409 C 194.619 149.196, 187.034 159.142, 186.218 171.639 C 185.820 177.723, 186.115 179.569, 188.216 184.139 C 191.547 191.385, 194.827 195.034, 201.167 198.546 C 205.901 201.168, 207.455 201.500, 215 201.500 C 222.545 201.500, 224.099 201.168, 228.833 198.546 C 235.173 195.034, 238.453 191.385, 241.784 184.139 C 243.885 179.569, 244.180 177.723, 243.782 171.639 C 243.042 160.308, 237.357 151.772, 227.313 146.909 C 221.748 144.215, 212.003 143.522, 206.222 145.409 M 205.422 150.418 C 200.889 152.392, 195.156 157.774, 192.922 162.152 C 186.942 173.875, 191.424 188.059, 203.152 194.524 C 220.341 203.999, 241.945 190.070, 239.683 170.970 C 238.630 162.078, 232.431 153.749, 224.355 150.375 C 220.193 148.636, 209.459 148.661, 205.422 150.418 M 219.009 170.491 L 209.557 179.982 205.372 175.874 C 201.471 172.046, 199 171.454, 199 174.347 C 199 175.794, 208.119 185, 209.552 185 C 210.093 185, 215.204 180.316, 220.910 174.591 C 228.156 167.320, 231.100 163.702, 230.673 162.591 C 230.337 161.716, 229.702 161, 229.262 161 C 228.821 161, 224.207 165.271, 219.009 170.491 M 133 200 C 133 201.843, 133.667 202, 141.500 202 L 150 202 150 229 L 150 256 141.500 256 C 133.667 256, 133 256.157, 133 258 C 133 259.857, 133.667 260, 142.300 260 C 152.670 260, 154 259.352, 154 254.300 C 154 252.460, 154.514 251, 155.162 251 C 155.801 251, 167.568 255.065, 181.311 260.034 C 199.980 266.783, 206.882 268.869, 208.606 268.284 C 212.180 267.070, 263.981 223.938, 265.581 220.844 C 268.869 214.485, 265.816 206.924, 259.154 204.928 C 253.794 203.322, 251.929 204.372, 236.583 217.635 C 225.220 227.455, 222.447 230.922, 224.794 232.372 C 225.230 232.642, 231.193 228.108, 238.044 222.296 C 244.895 216.484, 251.509 211.065, 252.743 210.254 C 257.413 207.183, 263.811 211.922, 262.429 217.429 C 261.959 219.301, 254.454 226.119, 236.633 240.867 C 222.810 252.306, 210.375 262.374, 209 263.240 C 206.607 264.748, 205.426 264.429, 181.500 255.826 C 167.750 250.881, 155.938 246.662, 155.250 246.449 C 154.316 246.161, 154 241.888, 154 229.552 L 154 213.041 158.070 210.964 L 162.141 208.888 185.820 217 C 198.844 221.461, 210.533 225.785, 211.796 226.609 C 217.031 230.023, 216.819 237.153, 211.397 240.055 C 209.220 241.220, 207.650 240.982, 198.213 238.058 C 182.831 233.292, 180.250 232.690, 178.345 233.421 C 176.875 233.985, 176.838 234.261, 178.072 235.454 C 180 237.317, 204.745 245, 208.819 245 C 215.151 245, 220 239.550, 220 232.432 C 220 229.517, 219.230 228.007, 216.250 225.073 C 212.959 221.833, 209.526 220.365, 188.214 213.082 C 164.310 204.914, 162.514 204.546, 156.250 206.523 C 154.217 207.165, 154 206.904, 154 203.817 C 154 198.639, 152.715 198, 142.300 198 C 133.667 198, 133 198.143, 133 200" stroke="none" fill="#f48c2d" fill-rule="evenodd"></path></svg>